<svg width="42" height="42" viewBox="0 0 42 42" fill="white" xmlns="http://www.w3.org/2000/svg">
<mask id="path-1-inside-1" fill="white">
<path d="M42 21C42 32.598 32.598 42 21 42C9.40202 42 0 32.598 0 21C0 9.40202 9.40202 0 21 0C32.598 0 42 9.40202 42 21Z"/>
</mask>
<path d="M33.0607 22.0607C33.6464 21.4749 33.6464 20.5251 33.0607 19.9393L23.5147 10.3934C22.9289 9.80761 21.9792 9.80761 21.3934 10.3934C20.8076 10.9792 20.8076 11.9289 21.3934 12.5147L29.8787 21L21.3934 29.4853C20.8076 30.0711 20.8076 31.0208 21.3934 31.6066C21.9792 32.1924 22.9289 32.1924 23.5147 31.6066L33.0607 22.0607ZM9 22.5L32 22.5V19.5L9 19.5V22.5ZM39 21C39 30.9411 30.9411 39 21 39V45C34.2548 45 45 34.2548 45 21H39ZM21 39C11.0589 39 3 30.9411 3 21H-3C-3 34.2548 7.74517 45 21 45V39ZM3 21C3 11.0589 11.0589 3 21 3V-3C7.74517 -3 -3 7.74517 -3 21H3ZM21 3C30.9411 3 39 11.0589 39 21H45C45 7.74517 34.2548 -3 21 -3V3Z" fill="#F5F6F7" mask="url(#path-1-inside-1)"/>
</svg>
