<svg id="Layer_1" data-name="Layer 1" xmlns="http://www.w3.org/2000/svg" viewBox="0 0 443.35 418.74"><defs><style>.cls-1,.cls-2{fill:none;stroke:#d32128;stroke-width:5px;}.cls-1{stroke-linecap:round;stroke-linejoin:round;}.cls-2{stroke-miterlimit:10;}</style></defs><title>declaration</title><path class="cls-1" d="M595.15,371s-15.24,0-18.42,17.51" transform="translate(-223.74 -43.56)"/><path class="cls-1" d="M614.91,415.29V459.8l-19.76-14.9-19.77,14.9V415.29a29.94,29.94,0,0,0,39.53,0Z" transform="translate(-223.74 -43.56)"/><path class="cls-1" d="M614.91,415.29a30.21,30.21,0,1,0-39.53,0" transform="translate(-223.74 -43.56)"/><line class="cls-1" x1="68.15" y1="299.31" x2="377.82" y2="299.31"/><line class="cls-1" x1="68.15" y1="270.79" x2="377.82" y2="270.79"/><line class="cls-1" x1="68.15" y1="242.26" x2="377.82" y2="242.26"/><line class="cls-1" x1="68.15" y1="213.74" x2="377.82" y2="213.74"/><line class="cls-1" x1="68.15" y1="185.22" x2="377.82" y2="185.22"/><line class="cls-1" x1="68.15" y1="156.7" x2="377.82" y2="156.7"/><rect class="cls-2" x="68.03" y="47.25" width="151.06" height="30.66" rx="13.06"/><path class="cls-2" d="M614.91,450.53h22.74c14.88,0,26.94-9.5,26.94-21.23v-362c0-11.73-12.06-21.23-26.94-21.23H253.17c-14.88,0-26.93,9.5-26.93,21.23v362c0,11.73,12,21.23,26.93,21.23H575.38" transform="translate(-223.74 -43.56)"/></svg>