<?xml version="1.0" encoding="UTF-8" standalone="no"?>
<svg
   xmlns:dc="http://purl.org/dc/elements/1.1/"
   xmlns:cc="http://creativecommons.org/ns#"
   xmlns:rdf="http://www.w3.org/1999/02/22-rdf-syntax-ns#"
   xmlns:svg="http://www.w3.org/2000/svg"
   xmlns="http://www.w3.org/2000/svg"
   xmlns:sodipodi="http://sodipodi.sourceforge.net/DTD/sodipodi-0.dtd"
   xmlns:inkscape="http://www.inkscape.org/namespaces/inkscape"
   inkscape:version="1.0 (6e3e5246a0, 2020-05-07)"
   sodipodi:docname="iconmonstr-flickr-3.svg"
   id="svg14"
   version="1.1"
   viewBox="0 0 24 24"
   height="24"
   width="24">
  <metadata
     id="metadata20">
    <rdf:RDF>
      <cc:Work
         rdf:about="">
        <dc:format>image/svg+xml</dc:format>
        <dc:type
           rdf:resource="http://purl.org/dc/dcmitype/StillImage" />
      </cc:Work>
    </rdf:RDF>
  </metadata>
  <defs
     id="defs18" />
  <sodipodi:namedview
     inkscape:current-layer="svg14"
     inkscape:window-maximized="0"
     inkscape:window-y="37"
     inkscape:window-x="0"
     inkscape:cy="12"
     inkscape:cx="12"
     inkscape:zoom="10.322025"
     showgrid="false"
     id="namedview16"
     inkscape:window-height="480"
     inkscape:window-width="784"
     inkscape:pageshadow="2"
     inkscape:pageopacity="0"
     guidetolerance="10"
     gridtolerance="10"
     objecttolerance="10"
     borderopacity="1"
     bordercolor="#666666"
     pagecolor="#ffffff" />
  <path
     style="fill:#ffffff"
     id="path12"
     d="M18.666 12.333c0 1.838-1.494 3.333-3.332 3.333s-3.334-1.495-3.334-3.333 1.496-3.333 3.334-3.333 3.332 1.496 3.332 3.333zm5.334-7.333v14c0 2.761-2.238 5-5 5h-14c-2.761 0-5-2.239-5-5v-14c0-2.761 2.239-5 5-5h14c2.762 0 5 2.239 5 5zm-4 7.333c0-2.578-2.09-4.667-4.666-4.667-1.309 0-2.488.539-3.336 1.405-.846-.866-2.024-1.405-3.332-1.405-2.576.001-4.666 2.09-4.666 4.667s2.09 4.667 4.666 4.667c1.308 0 2.486-.539 3.332-1.405.848.866 2.027 1.405 3.336 1.405 2.576 0 4.666-2.089 4.666-4.667z" />
</svg>
