<?xml version="1.0" encoding="UTF-8"?>
<svg width="894.12" height="290.82" version="1.1" viewBox="0 0 894.12 290.82" xml:space="preserve" xmlns="http://www.w3.org/2000/svg" xmlns:cc="http://creativecommons.org/ns#" xmlns:dc="http://purl.org/dc/elements/1.1/" xmlns:rdf="http://www.w3.org/1999/02/22-rdf-syntax-ns#"><metadata><rdf:RDF><cc:Work rdf:about=""><dc:format>image/svg+xml</dc:format><dc:type rdf:resource="http://purl.org/dc/dcmitype/StillImage"/><dc:title/></cc:Work></rdf:RDF></metadata><defs><clipPath id="clipPath26"><path d="M 0,218.118 H 670.588 V 0 H 0 Z"/></clipPath></defs><g transform="matrix(1.3333 0 0 -1.3333 0 290.82)"><path d="m193.83 180.86h1.907v-144h-1.907z" fill="#fff"/><text transform="matrix(.98781 0 0 -1 58.06 38.872)" fill="#ffffff" font-family="'Montserrat Black'" font-size="29.592px" font-weight="900"><tspan x="0 21.306528 42.524281 68.240074" y="0">STAR</tspan></text><g clip-path="url(#clipPath26)"><g transform="translate(59.824 76.04)"><path d="m0 0c-9.913 11.127-15.948 25.865-15.948 42.032 0 34.678 27.767 62.787 62.022 62.787 34.251 0 62.022-28.109 62.022-62.787 0-16.617-6.381-31.732-16.798-42.964" fill="none" stroke="#fff" stroke-linecap="round" stroke-linejoin="bevel" stroke-miterlimit="10" stroke-width="1.545"/></g><g transform="translate(129.06 111.33)"><path d="m0 0c-0.991-0.305-1.992-0.559-2.986-0.835-0.24-0.07-0.475-0.093-0.703-0.089-0.491 0.015-0.966 0.164-1.451 0.309-0.538 0.164-1.142 0.079-1.709 0.172-0.39 0.06-0.769 0.224-1.142 0.354-0.139 0.056-0.28 0.246-0.379 0.25-7e-3 0-0.015-4e-3 -0.021-4e-3 -0.722-0.168-1.459-0.309-2.144-0.597-0.732-0.305-1.377-1.006-2.113-1.091-1.138-0.123-2.106-0.903-3.259-0.874-0.118 4e-3 -0.239 0.016-0.357 0.039h-0.011c-0.126 2e-3 -0.402-0.266-0.409-0.422-0.073-0.839-0.832-1.473-1.664-1.454-0.133 4e-3 -0.265 0.026-0.398 0.063-0.213 0.064-0.435 0.098-0.651 0.101-0.832 0.023-1.617-0.369-1.978-1.118-0.633-1.327-1.937-1.229-3.019-1.614-0.236-0.082-0.516-0.064-0.77-0.093-0.596-0.064-0.843-0.508-0.556-1.022 0.512-0.931 0.42-1.394-0.482-1.95-0.493-0.297-0.678-0.625-0.568-1.218 0.152-0.816-0.349-1.535-1.134-1.733-0.512-0.134-0.85-0.306-0.552-0.948 0.199-0.401 0.096-0.759-0.265-1.106-0.35-0.335-0.56-1.078-0.57-1.491-2e-3 -0.058-0.031-0.166-0.067-0.296-0.035-0.229-0.092-0.462-0.16-0.703-0.05-0.336-0.044-0.68 0.142-0.918 0.442-0.558 0.935-0.336 1.756-0.5 0.567-0.282 0.549-0.803 0.887-1.172 0.111-0.314 0.347-0.613 0.755-1.212 0.118 0.268-0.022 0.619 0.28 0.611 0.593-0.135 1.443-0.413 2.069-0.526 0.262-0.753 0.583-1.121 0.671-1.67-0.947 0.109-1.602 0.12-2.548 0.343-0.081-0.294-0.2-0.715-0.2-0.715s0.586 0.19 0.881 0.127c0.037-0.5 4e-3 -0.556 0.048-1.014 0.188 0.048 0.313 0.226 0.452 0.13 0.346-0.831 0.273-1.088 0.811-0.813 0.099-0.238 0.213-1.599 0.213-1.599s0.073-0.059 0.151-0.063c0.11-4e-3 0.575 1.301 1.013 1.756 0.213-0.221 0.755-1.186 0.928-1.26 0.386-0.164 1.535 0.376 1.764 0.432 0.394 0.108 0.629 0.648 1.384 0.339 0.777-0.313 1.241-0.573 1.886-0.1 0.286 0.339 0.434 0.704 0.747 0.607 0.42-0.134 0.202-0.283 0.607-0.808 0.354 0.462 0.446 0.48 0.667 0.409 1.322-0.484 1.019-0.704 3.631-1.33 0-0.013-1e-3 -0.021 0-0.033 0.03-6e-3 0.06-0.01 0.09-0.015-0.028-0.122-0.067-0.222-0.11-0.312-0.04-0.201-0.149-0.324-0.366-0.412-8e-3 -4e-3 -0.016-6e-3 -0.024-0.01-0.018-8e-3 -0.032-0.016-0.052-0.023-0.173-0.08-0.364-0.111-0.555-0.126-0.146-0.025-0.304-0.05-0.49-0.08 6e-3 -0.162 4e-3 -0.29 9e-3 -0.411 2e-3 -0.014 4e-3 -0.03 5e-3 -0.046 8e-3 -0.116 0.022-0.226 0.063-0.355-1.163 0.071-1.468 0.566-2.169 0.831-1.277 0.489-2.149 0.366-3.247 0.786-0.858 0.102-1.594 0.259-1.987 0.214-0.287-0.125-0.551-0.356-0.8-0.707-0.049-0.159-0.107-0.306-0.386-0.353-0.082 0.023-0.575-0.033-0.642-0.033-0.463 0.015-0.5-0.053-0.717-0.343-0.461-0.604-0.66-0.988-1.123-1.748 0.14-0.112 0.471-0.381 0.816-0.633 0.215-0.172 0.141-0.5 0.572-0.777 1.263-0.805 2.287-1.375 2.264-2.915-0.191-0.834-0.637-0.647-0.331-1.494 0.173-0.484 0.607-0.618 0.965-0.929-0.134-0.238-0.431-0.827-0.296-0.913 0.233-0.122 0.962 0.143 1.168-0.179-0.099 0.281-0.361 1.215-0.261 1.428 0.18 0.4 0.194 0.568 1.145 0.728 0.53 0.025 0.718-0.086 0.743-0.325-0.021-0.53 0.141-0.588 0.539-0.698 0.599-0.16 0.75 0.02 0.828-0.208 0.04-0.131 0.056-0.273 0.07-0.425 0.014-0.079 0.03-0.175 0.047-0.297 0.042-0.322 0.19-0.627 0.31-0.935 0.046 0.018 0.111 0.059 0.195 0.096-0.081 0.342-0.231 0.674-0.28 0.79 0.107 0.156 0.147 0.257 0.302 0.369 0.187 4e-3 0.379-0.123 0.626-0.16 0.232 0.197 0.523 0.32 0.678 0.339 0.475-0.015 0.722-0.165 0.873-0.367 0.032-0.118 0.021-0.266 0.022-0.419 0.044-0.212 0.097-0.366 0.166-0.468 0.154-0.075 0.372-0.116 0.596-0.186 0.284-0.122 0.397-0.197 0.618-0.227-0.04 0.194-0.25 0.428-0.361 0.575-0.236 0.339 0.114 0.544 0.015 1.289-0.044 0.394-0.185 0.463-0.656 1.294-0.313 0.372-0.777 1.307-1.439 2.374-0.331 0.459-0.512 1.134-0.578 1.67 0.401 0.045 1.027-0.022 1.41-0.112 0.446-0.071 0.895-0.224 1.698-0.455 0.021-0.088 0.028-0.154 0.04-0.229 0.039-0.085 0.053-0.191 0.04-0.333 8e-3 -0.224-0.015-0.343 0.011-0.324 0.38 0.234 0.877 0.715 1.462 0.913-0.052 0.148-0.118 0.364-0.166 0.477-0.033 0.1-0.136 0.317-0.228 0.551-1e-3 -8e-3 -3e-3 -0.012-5e-3 -0.019-0.02-0.164-0.039-0.327-0.062-0.491-0.019 5e-3 -0.036 0.014-0.055 0.02-2e-3 -0.01-5e-3 -0.018-7e-3 -0.028-0.279-0.019-0.74 0.247-0.879 0.37-0.273 0.245-0.472 0.438-0.549 0.979-0.019 0.232-0.022 0.343-0.015 0.794 0 0-0.493 0.123-1.193 0.388 0.947 0.481 2.408 1.249 3.236 1.67 7e-3 -0.017 0.017-0.032 0.025-0.047 6e-3 3e-3 0.013 7e-3 0.019 0.01 9e-3 3e-3 0.025-7e-3 0.034-5e-3 0.014 0.016 0.029 0.032 0.067 0.049 0.051-0.028 0.102-0.05 0.153-0.078 0.112-0.043 0.232-0.105 0.332-0.152 0.039-0.019 0.073-0.047 0.109-0.071 0.647-0.303 1.266-0.535 1.645-0.847 0.278-0.22 0.4-0.652 0.622-1.065 0.062-0.094 0.066-0.154 0.279-0.217 0.232 0.399-0.217 0.962-0.35 1.181-0.242 0.497-0.213 1.074-0.121 1.705 0.059 0.387 0.128 0.51 0.188 0.816-0.862 0.439-1.889 0.398-2.405 0.88-0.456 0.39-0.748 0.801-1.023 0.883-0.339 0.037-0.549-0.31-0.685-0.243-0.239 0.112-0.354 0.765-0.468 0.969-0.258 0.474-0.428 0.246-1.009 0.068-0.114 6e-3 -0.357 0.014-0.431 0.112-0.21 0.279-0.361 0.495-0.526 0.57-0.445 0.19-0.67 0.122-1.388 0.253-0.487 0.131-0.645 0.037-1.507 0.451-0.011 0.071-0.04 0.191-0.047 0.261 1.013 0.474 1.539 0.601 2.931 0.97-0.608 0.458-0.579 0.503-1.116 1.106-0.619 0.683-0.95 1.063-0.95 1.063 0.184 0.052 0.401 0.197 0.457 0.238 0 0 0.46 0.396 0.828 0.779l0.059-0.039c4e-3 4e-3 6e-3 7e-3 0.01 0.01 0.594-0.4 1.267-0.843 2.053-1.364-0.314 0.574-2.25 2.5-2.936 3.261-0.471 0.619-0.563 0.902-0.817 1.208-0.313 0.373-0.398 0.705-0.777 1.006-0.762 0.939-0.913 1.212-0.537 2.409 0.099 0.19-0.041 1.054-0.044 1.453 0.246 0.219 0.426 0.257 0.842 0.786 0.137 0.149 0.468 0.403 0.921 0.708 0.031-0.018 0.045-0.043 0.07-0.065 0.011 0.011 0.021 0.019 0.032 0.029 0.022-0.035 0.025-0.065 0.043-0.099 0.075-0.091 0.115-0.194 0.13-0.301 0.013-0.049 9e-3 -0.092 0.014-0.137 0-0.016 0-0.029-1e-3 -0.043 5e-3 -0.093 3e-3 -0.185-0.028-0.267-0.112-0.738-0.383-0.805 0.391-1.125 0.34-0.137 1.326-0.455 1.957-0.815 0.038-0.015 0.078-0.026 0.116-0.042 6e-3 -2e-3 0.014 0 0.021 0-0.071 0.096 3e-3 0.129 0.186 0.234 0.707 0.402 1.193 0.239 1.564 0.038 0.084-0.057 0.149-0.103 0.221-0.153 0.033-0.019 0.062-0.046 0.095-0.067 0.355-0.255 0.57-0.44 0.822-0.646 0.494-0.481 0.704-0.708 0.741-0.618-0.026 0.287 0.037 0.573-0.431 0.917-0.21 0.145-0.625 0.395-0.733 0.473-0.607 0.544-0.78 0.634-0.398 1.014 0.34 0.306 0.479 0.414 0.888 0.402 0.089-4e-3 0.508-0.164 0.582-0.201 0.541-0.252 0.685-0.293 1.122-0.518 0.4-0.168 0.833-0.351 1.3-0.55 7e-3 -2e-3 8e-3 -2e-3 8e-3 -2e-3s-0.254 0.25-0.537 0.508c-0.612 0.648-1.283 0.741-1.915 0.947-0.409 0.055-0.778 0.174-1.013 0.246-0.39 0.137-0.074 0.424-0.11 0.741-0.063 0.604-0.277 0.339-0.723 0.63-0.282 0.176-0.437 0.343-0.128 0.622 0.151 0.131 0.806 0.485 1.005 0.477 0.137-0.026 0.28-0.051 0.429-0.069 0.018-3e-3 0.032-3e-3 0.049-5e-3 0.15-0.016 0.307-0.025 0.48-0.018 0.353 0.044 0.415 0.062 0.758 0.354 0.332 0.32 0.409 0.361 0.696 0.931 0.144 0.235 0.538 0.705 0.7 0.809 0.795 0.321 1.049-0.399 1.866-0.287 1.157 0.399 1.135 0.473 1.462 0.653 0.269 0.149 0.372 0.108 0.589 0.07 0.84-0.137 0.535 0.25 1.389 0.206l0.298 0.103c0.345 0.12 0.051 0.068 0.42 0.061l0.037-4e-3c0.787-0.029 0.851-0.121 0.638-0.86 9e-3 -1e-3 0.018-3e-3 0.027-4e-3 0.63 0.467 1.301 1.959 1.149 2.724-0.199 1.025 0.045 1.826 0.914 2.464 0.549 0.414 0.453 1.402-0.17 1.655-0.729 0.298-1.502 0.462-2.257 0.685l-0.213-0.256c0.188-0.463 0.342-0.944 0.567-1.394 0.412-0.847 0.261-1.335-0.626-1.6" fill="#fff"/></g><g transform="translate(118.55 127.53)"><path d="m0 0c-0.725-0.284-1.449-0.374-2.174-0.359-0.843 0.03-1.671 0.18-2.499 0.329-0.429 0.06-0.843 0.165-1.257 0.18-0.354 0.015-0.68-0.045-1.02-0.239-0.074-0.031-0.148-0.046-0.237-0.046-0.029 0-0.059 0-0.088 0.015-0.266 0.045-0.517 0.12-0.784 0.195 0.104 0.21 0.192 0.449 0.34 0.629 0.473 0.629 0.489 0.808-0.236 1.078-0.814 0.299-1.405 0.853-2.055 1.362-0.37 0.284-0.4 0.613-0.015 0.928 0.177 0.119 0.399 0.194 0.532 0.359 0.089 0.12 0.178 0.389 0.103 0.494-0.251 0.389-0.635 0.584-1.02 0.598-0.473 0-0.961-0.239-1.197-0.748-0.134-0.254-0.281-0.524-0.459-0.868-0.207 0.225-0.37 0.389-0.532 0.554-0.34 0.344-0.636 0.763-1.109 0.778-0.148 0.015-0.311-0.03-0.488-0.105-0.015-0.014-0.03-0.014-0.059-0.014-0.119 0-0.37 0.149-0.444 0.284-0.207 0.329-0.458 0.509-0.798 0.509-0.163 0.015-0.325-0.015-0.518-0.075 0.252 0.285 0.429 0.494 0.562 0.629-0.118 0.284-0.281 0.509-0.296 0.763 0 0.03 0 0.045-0.014 0.075 0.014 0.015 0.044 0.015 0.059 0.015 0.31 0.03 0.636 0.06 0.946 0.075 0.222 0.015 0.459 0.03 0.68 0.03 0.104 0 0.207 0.014 0.311 0.014 0.251 0 0.502-0.014 0.768-0.029 0.163-0.015 0.341-0.015 0.518-0.03 0.533-0.03 1.08-0.105 1.612-0.195 4.584-0.823 8.384-3.502 10.868-7.185" fill="#fff"/></g><g transform="translate(99.277 114.48)"><path d="m0 0c-0.534 0.209-1.057 0.597-1.455 1.025-0.247 0.258-0.471 0.395-0.718 0.399-0.165 8e-3 -0.338-0.049-0.534-0.172-0.173-0.104-0.324-0.152-0.456-0.148-0.243 3e-3 -0.427 0.189-0.571 0.51-0.052 0.123-0.155 0.231-0.276 0.395-0.39-0.682-0.699-1.33-1.105-1.905-0.349-0.499-0.655-1.289-0.511-1.875 7e-3 -0.491 0.125-0.801 0.39-1.185 0.7-0.428 1.046-0.149 1.44-0.283 0.379-0.138-0.107-0.485-0.21-0.843-0.059-0.216 0.121-0.391 0.085-0.611-0.07-0.44-0.012-0.917-0.509-1.126-0.113-0.235-0.044-0.649-0.467-1.469 0.456-0.025 0.684 0.016 0.776-0.234 0.134-0.362-0.136-0.679-0.235-1.193-0.187-0.347-0.066-0.697 7e-3 -0.954 0.136-0.499 0.644-0.645 0.457-1.029-0.103-0.216-0.586-0.209-0.762-0.477-0.218-0.336-0.133-0.947-0.206-1.185-0.097-0.313 0.202-0.31 0.371-0.627 0.158-0.29 0.126-0.376 0.287-1.305 0.196-0.942-0.637-0.86 0.192-1.334 0.755-0.422 1.757-0.548 2.482-1.018 0.508-0.338 0.924-1.122 0.715-1.836-0.188-0.642 0.869-1.715 0.798-0.254l0.424-0.045c0.283 0.484 0.489 0.827 0.614 1.069 0.262 0.519 0.159 0.459 0.081 0.749-0.206 0.769-0.077 1.089 0.656 1.29 0.78 0.22 1.046 0.474 0.95 1.272-0.095 0.864 0.173 1.382 0.954 1.752 0.6 0.283 0.614 0.674 0.335 1.289-0.166 0.38-0.206 0.835-0.35 1.443-0.611 0.152-1.572 0.283-1.83 1.378-0.019 0.082-0.089 0.154-0.151 0.217-0.637 0.592-1.016 1.286-0.832 2.203 0.029 0.153-0.1 0.339-0.118 0.511-0.066 0.425-0.195 0.861-0.14 1.283 0.07 0.614 0.251 1.226 0.416 1.837 0.195 0.746-0.206 2.177-0.994 2.486" fill="#fff"/></g><g transform="translate(93.519 124.55)"><path d="m0 0c0.163-0.209 0.177-0.599 0.133-0.898-0.015-0.075-0.444-0.12-0.68-0.15-0.577-0.075-1.168-0.09-1.73-0.254-0.163-0.045-0.296-0.494-0.311-0.764 0-0.194 0.237-0.404 0.355-0.614 0.074-0.134 0.074-0.299 0.118-0.434-0.148 0.031-0.296 0.046-0.428 0.075-0.207 0.075-0.429 0.255-0.636 0.255-0.118 0-0.222-0.045-0.325-0.225-0.223-0.464-0.296-0.988-0.444-1.482-0.089-0.239-0.148-0.598-0.325-0.673-0.503-0.254-0.651-0.599-0.459-1.093 0.163-0.419 0.946-0.524 1.05-0.973 0.074-0.254 0.251-0.808 0.089-1.003-0.414-0.419-0.814-0.464-1.331-0.434-0.015 0.06-0.03 0.12-0.044 0.18 0.088 0.074 0.192 0.179 0.118 0.269-0.207 0.239-0.754 0.255-1.346 0.749-1.138 0.703-2.04 1.93-3.371 2.38-0.281 0.089-0.429-0.105-0.725-0.195-0.606 0.329-1.463 1.407-1.907 1.841-0.783 0.794-1.759 1.048-2.795 1.497-0.813 0.359-1.286 0.464-2.158 0.718-0.385 0.105-1.538-0.209-1.775 0.105-0.695 0.869-0.665 1.018-0.931 1.872-1.375 0.179-1.789 0.763-2.425 1.197-1.006 0.674-1.375 1.227-1.213 1.587 0.592-0.12 0.961-0.554 1.375-0.689 0.754-0.269 0.843-0.12 1.331 0.015-0.295 0.285-0.665 0.793-0.99 1.048-0.459 0.389-1.183 0.703-1.435 1.032-0.295 0.405-1.449 1.992-1.685 2.695-0.03 0.868-0.089 1.542-0.163 2.081-0.015 0.464-0.118 0.943-0.266 1.392-0.118 0.359-0.222 0.569-0.296 0.703-0.295 0.299-0.488 0.524-0.961 0.614-0.562-0.09-0.665-0.794-1.198-2.32-0.162 0.09-0.34 0.269-0.487 0.494-0.193-0.225-0.518-2.141-0.636-2.141-0.104 0.015-0.429 0.075-0.474 0.435-0.029 0.284-0.207 0.793-0.369 0.987-0.06 0.09-0.133 0.225-0.34 0.18 0.177 0.105 0.34 0.419 0.517 0.704-0.251-0.06-0.281-0.045-0.385-0.045-0.132 0.284-0.25 0.583-0.384 0.883-0.014 0.06-0.029 0.119-0.059 0.179-0.059 0.195-0.162 0.389-0.251 0.569-0.015 0.015-0.015 0.015-0.015 0.03-0.104 0.269-0.118 0.434-0.089 0.524 0.015 0.03 0.015 0.06 0.045 0.075 0.074 0.075 0.207 0.06 0.31 0.03 0.222-0.09 2.159-0.629 2.07-0.225v0.015c0 0.03 0 0.045-0.015 0.09-0.177 0.255-1.996 0.269-2.055 0.539 0.133 0.209 0.4 0.24 0.68 0.389 0.784 0.359 0.947 0.629 0.991 0.853-0.044 0.135-0.207 0.269-0.399 0.435 0.207 0.104 0.414 0.194 0.636 0.284 0.177 0.06 0.34 0.119 0.517 0.179 0.266 0.09 0.518 0.18 0.784 0.27 0.177 0.045 0.355 0.09 0.547 0.149 0.266 0.06 0.532 0.12 0.798 0.18 0.178 0.045 0.355 0.075 0.547 0.105 0.281 0.06 0.577 0.09 0.858 0.135 0.177 0.014 0.34 0.045 0.503 0.059 0.355 0.031 0.71 0.045 1.064 0.045 0.104 0 0.222 0.015 0.326 0.015h0.044c0.311 0 0.621-0.015 0.932-0.045 0.162 0 0.325 0 0.502-0.015 0.488-0.045 0.976-0.104 1.479-0.194 0.369-0.075 0.739-0.15 1.109-0.24-0.044-0.134-0.089-0.269-0.148-0.419-0.222-0.539-0.503-0.868-1.094-0.973-0.636-0.104-0.887-0.374-0.65-0.823 0.236-0.494 0.339-0.973-0.148-1.347-0.341-0.255-0.637-0.389-0.932-0.374-0.281 0-0.547 0.134-0.828 0.374-0.503 0.449-0.991 0.928-1.523 1.422-1.346-1.332-2.854-0.719-4.421-1.123 0.222-0.075 0.414-0.134 0.65-0.149 0.592 0.119 1.139 0.074 1.434 0.119 0.06 0 0.134-0.015 0.207-0.015 0.089-0.03 0.193-0.03 0.282-0.03 0.547-0.015 0.961 0.21 1.36 0.539 0.192 0.135 0.34 0.21 0.488 0.195 0.162 0 0.325-0.105 0.502-0.314 0.282-0.345 0.592-0.659 0.917-0.928 0.252-0.21 0.562-0.3 0.873-0.315 0.709-0.015 1.449 0.434 1.567 1.138 0.059 0.419-0.162 0.883-0.266 1.392 0.384 0.18 0.651-0.075 1.035 0.149 0.251 0.165 0.651 0.405 0.665 0.644 0.059 0.764-0.044 0.524 0.163 0.808 3.948-1.047 7.245-3.487 9.493-6.735-0.34 0-0.695 0.134-1.065 0.224-0.029 0-0.059 0.015-0.089 0.015-0.162 0-0.354-0.075-0.547-0.105-0.103-0.015-0.207-0.045-0.31-0.045-0.045 0-0.074 0-0.104 0.016-0.842 0.314-1.7 0.628-2.617 0.972-0.162-0.509-0.739-0.404-1.271-0.449-0.266-0.015-0.562-0.209-0.74-0.404-0.34-0.404-0.576-0.584-0.842-0.584-0.223 0-0.459 0.165-0.799 0.465-0.118 0.104-0.222 0.254-0.37 0.314-0.162 0.044-0.399 0.134-0.532 0.134-0.059 0-0.104-0.014-0.118-0.029-0.325-0.405-0.621-0.839-0.784-1.318-0.148-0.449-0.133-0.958-0.148-1.437-0.03-0.509 0.059-1.048 0.636-1.152 0.724-0.12 0.961-0.614 1.124-1.198 0.281-1.107 0.724-2.11 1.552-2.919 0.193-0.194 0.355-0.419 0.532-0.643-0.014-0.075-0.044-0.15-0.059-0.225-0.251 0.015-0.488 0.045-0.724 0.045h-0.251c-0.385-0.045-0.888-0.03-1.124-0.255-0.414-0.404-0.311-0.987-0.03-1.481 0.059 0.209 0.104 0.419 0.089 0.643-0.044 0.749 0.222 0.958 0.828 0.943h0.192c0.133-0.015 0.252-0.06 0.385-0.06h0.074c0.31 0.045 0.62 0.105 0.946 0.18-0.133 0.239-0.207 0.524-0.37 0.704-0.872 0.928-1.552 1.93-1.833 3.203-0.119 0.584-0.429 1.108-1.124 1.302-0.222 0.06-0.503 0.42-0.518 0.674-0.059 0.569-0.029 1.167 0.089 1.721 0.089 0.375 0.37 0.733 0.651 0.988 0.015 0.015 0.029 0.015 0.044 0.015 0.133 0 0.518-0.27 0.739-0.434 0.4-0.344 0.607-0.509 0.814-0.509 0.221-0.015 0.428 0.18 0.887 0.584 0.251 0.239 0.636 0.584 0.916 0.568h0.045c0.178-0.029 0.325-0.059 0.458-0.059 0.355 0 0.607 0.089 0.74 0.374 0.946-0.359 1.804-0.689 2.676-1.003h0.015c0.044 0 0.103 0.06 0.162 0.09 0.222 0.119 0.444 0.18 0.651 0.164 0.311 0 0.606-0.134 0.887-0.344 0.148-0.104 0.296-0.164 0.414-0.18 0.045 0 0.089 0 0.133 0.016 2.455-3.772 3.52-8.548 2.647-13.442 0.104 0.583 0.237 1.152 0.4 1.721 0.043 0.195 0.118 0.374 0.177 0.554 0.103 0.374 0.221 0.734 0.355 1.092 0.073 0.21 0.177 0.42 0.251 0.629 0.133 0.315 0.281 0.629 0.429 0.943 0.088 0.21 0.207 0.42 0.31 0.629 0.163 0.284 0.311 0.569 0.488 0.853 0.118 0.21 0.237 0.404 0.37 0.599 0.177 0.269 0.355 0.539 0.547 0.793 0.133 0.195 0.281 0.375 0.429 0.569 0.192 0.254 0.399 0.494 0.621 0.733 0.015 0.016 0.029 0.031 0.044 0.045 0.34-0.808 0.828-1.496 1.567-1.99 0.104-0.075 0.237-0.315 0.207-0.39-0.073-0.164-0.251-0.329-0.414-0.359-0.029-0.015-0.059-0.015-0.088-0.015-0.163 0-0.34 0.09-0.503 0.09h-0.044c-0.207 0.015-0.414-0.03-0.606-0.045-0.045-0.089-0.089-0.194-0.134-0.284 0.503-0.494 1.05-0.958 1.494-1.512" fill="#fff"/></g><g transform="translate(110.98 121.12)"><path d="m0 0c-0.37-0.644-0.709-1.093-1.479-1.153-0.103-0.014-0.295-0.359-0.266-0.493 0.163-0.614 0.399-1.213 0.592-1.812 0.059-0.194 0.118-0.434 0.059-0.614-0.148-0.419-0.37-0.838-0.592-1.317-0.192 0.135-0.31 0.269-0.414 0.269h-0.014c-0.799-0.044-1.745 0.135-2.337-0.239-0.517-0.314-1.035-0.524-1.552-0.733-0.015 0.014-0.03 0.03-0.044 0.059-0.06 0.045-0.119 0.105-0.163 0.195-0.044 0.075-0.074 0.135-0.074 0.165-0.015 0.03-0.015 0.03 0 0.045 0 0.029 0 0.074-0.015 0.134 0 0.06-0.03 0.135-0.089 0.24-0.044 0.09-0.073 0.165-0.073 0.179 0 0.031 0 0.031 0.029 0.06 0.044 0.045 0.178 0.12 0.31 0.329 0.045 0.09 0.089 0.135 0.119 0.165 0.029 0.015 0.044 0.03 0.088 0.045 0.03 0.015 0.075 0.06 0.104 0.12 0.015 0.06 0.044 0.135 0.074 0.254 0.029 0.12 0.059 0.18 0.074 0.21 0.029 0.015 0.044 0.03 0.074 0.045 0.029 0.015 0.089 0.03 0.118 0.09 0.015 0.06 0.03 0.134 0.03 0.269 0 0.105 0 0.21 0.014 0.27 0 0.045 0.015 0.059 0.015 0.09v0.074l-0.015 0.015-0.014 0.03-0.045 0.015h-0.029l-0.03-0.015h-0.015s0-0.015-0.014-0.015c-0.015-0.03-0.015-0.045-0.045-0.059-0.029-0.061-0.089-0.15-0.177-0.27-0.089-0.12-0.148-0.195-0.192-0.21-0.045-0.03-0.045-0.03-0.059-0.015-0.03 0.015-0.06 0.045-0.104 0.105-0.03 0.045-0.074 0.12-0.133 0.18-0.045 0.06-0.059 0.089-0.059 0.12-0.015 0.014 0 0.029-0.03 0.074 0 0.016-0.015 0.045-0.044 0.06-0.03 0.015-0.044 0.015-0.074 0.015-0.045 0.015-0.104 0.015-0.207 0-0.207-0.015-0.37 0-0.518 0.045-0.133 0.06-0.236 0.15-0.295 0.344-0.074 0.195-0.074 0.315-0.089 0.42 0 0.045-0.015 0.104-0.059 0.149-0.03 0.045-0.089 0.06-0.163 0.075-0.133 0.015-0.296 0.015-0.458 0.03-0.163 0.015-0.311 0.06-0.37 0.12-0.03 0.045-0.03 0.045-0.03 0.074 0 0.016 0 0.045 0.03 0.105 0.03 0.105 0.089 0.3 0.059 0.599-0.014 0.15-0.029 0.254-0.074 0.314-0.029 0.075-0.118 0.105-0.177 0.12-0.104 0-0.207-0.015-0.429 0.135-0.118 0.075-0.192 0.119-0.281 0.135-0.03 0-0.074-0.03-0.103-0.06-0.03-0.03-0.045-0.045-0.045-0.075-0.044-0.12-0.029-0.225-0.177-0.299-0.089-0.03-0.133-0.061-0.163-0.075-0.015 0.014-0.015 0.014-0.029 0.059-0.03 0.06-0.075 0.135-0.148 0.24-0.059 0.09-0.104 0.135-0.118 0.165 0 0.015 0.014 0.015 0.029 0.029 0.044 0.031 0.103 0.076 0.148 0.15 0.044 0.06 0.074 0.075 0.103 0.09 0.015 0.015 0.045 0.03 0.074 0.045 0.03 0.015 0.044 0.03 0.06 0.06 0.014 0.03 0.014 0.06 0.014 0.075-0.014 0.059-0.03 0.12-0.074 0.209-0.029 0.105-0.074 0.18-0.133 0.225-0.03 0.015-0.074 0.03-0.103 0.03-0.03 0-0.059-0.015-0.074-0.015-0.06-0.015-0.104-0.045-0.133-0.075-0.045-0.03-0.074-0.045-0.104-0.045-0.103-0.03-0.251-0.075-0.414-0.149-0.177-0.06-0.37-0.135-0.562-0.21-0.044-0.03-0.088-0.045-0.118-0.06s-0.059-0.045-0.074-0.09 0-0.09 0.015-0.119l0.059-0.06c0.089-0.105 0.237-0.27 0.34-0.599 0.089-0.299 0.148-0.404 0.178-0.494-0.148 0.045-0.326 0.015-0.444-0.075-0.133-0.09-0.237-0.225-0.296-0.359-0.059-0.15 0-0.255 0-0.329 0-0.045-0.014-0.06-0.03-0.105-0.029-0.03-0.059-0.09-0.147-0.15-0.074-0.06-0.133-0.075-0.163-0.075-0.044 0-0.074 0.015-0.104 0.045-0.029 0.015-0.059 0.03-0.088 0.06-0.015 0-0.015 0.015-0.015 0.015h-0.088s-0.03-0.03-0.045-0.03c0 0 0-0.015-0.015-0.015v-0.045c-0.015-0.045-0.074-0.15-0.177-0.269-0.104-0.135-0.252-0.27-0.459-0.42-0.221-0.149-0.31-0.194-0.325-0.209-0.015 0.015-0.029 0.015-0.074 0.015-0.044 0-0.162 0.045-0.251 0.09-0.104 0.045-0.177 0.09-0.177 0.09l-0.016-0.045c-0.251 0.614-0.561 1.197-0.961 1.676-0.857 1.063-1.774 2.125-3.075 2.739-0.325 0.135-0.532 0.479-0.799 0.734 0.355 0.045 0.725 0.134 1.08 0.15 0.621 0.015 0.872 0.224 0.784 0.838-0.03 0.284-0.193 0.583-0.37 0.808-0.355 0.449-0.769 0.853-1.227 1.347h0.162c0.059-0.015 0.104-0.015 0.163-0.015 0.089 0 0.162 0 0.237-0.015 0.132-0.03 0.251-0.044 0.384-0.06 0.355 0 0.665 0.12 0.754 0.495 0.059 0.224-0.414 0.568-0.636 0.868-0.429 0.583-0.887 1.167-1.271 1.766 0.088 0.09 0.162 0.195 0.251 0.284 0.236 0.24 0.473 0.464 0.709 0.704 0.164 0.134 0.296 0.284 0.459 0.419 0.296 0.27 0.592 0.509 0.902 0.733 0.118 0.105 0.222 0.195 0.355 0.285 0.429 0.314 0.872 0.613 1.331 0.883 0.103 0.075 0.222 0.135 0.34 0.195 0.355 0.209 0.71 0.389 1.064 0.569 0.178 0.089 0.355 0.164 0.548 0.239 0.295 0.135 0.606 0.269 0.916 0.389 0.207 0.075 0.414 0.135 0.621 0.209 0.311 0.09 0.607 0.18 0.917 0.27 0.207 0.06 0.429 0.105 0.651 0.15 0.31 0.075 0.606 0.135 0.916 0.18 0.119 0.014 0.222 0.045 0.326 0.045 0.029-0.061 0.029-0.135 0.029-0.21 0-0.3 0.444-0.629-0.044-0.898-0.488-0.569-0.133-0.674 0.606-0.599h0.015c0.207 0 0.444-0.389 0.665-0.554 0.118-0.09 0.281-0.195 0.414-0.195 0.015 0 0.03 0 0.045 0.016 0.177 0.059 0.34 0.074 0.487 0.074 0.503-0.015 0.829-0.389 1.169-0.853 0.147-0.21 0.325-0.314 0.502-0.314 0.237 0 0.459 0.164 0.607 0.479 0.281 0.673 0.532 0.988 0.916 0.988 0.296-0.016 0.666-0.21 1.183-0.584-0.266-0.15-0.517-0.269-0.71-0.449-0.532-0.449-0.517-0.674 0-1.138 0.858-0.808 0.858-0.808 0.296-1.886-0.132-0.254-0.28-0.494-0.414-0.733-0.296-0.569-0.384-1.168 0.015-1.677 0.799-1.048 1.582-2.095 2.484-3.053 0.754-0.824 0.784-1.108 0.222-2.081" fill="#fff"/></g><g transform="translate(134.63 116.82)"><path d="m0 0c-0.31-0.183-2.486-0.238-2.82-0.373-0.151-0.067-0.358-0.078-0.443-0.19-0.29-0.361-0.56-0.745-0.788-1.155-0.132-0.235-0.199-0.522 0.236-0.619 0.332-0.071 0.667-0.209 0.942-0.395 0.774-0.526 0.858-1.495 0.122-2.096-0.695-0.573-1.027-1.155-0.71-2.106 0.125-0.379-0.049-0.909-0.214-1.323-0.225-0.554-0.554-1.065-0.835-1.563 0.196-0.023 0.391-0.05 0.587-0.065 0.175-0.012 0.356-0.071 0.537-0.136 0.102-0.012 0.199-0.024 0.301-0.036-4e-3 -0.023-5e-3 -0.047-8e-3 -0.07 0.088-0.031 0.176-0.059 0.263-0.079 0.84 0.427 0.614 0.415 1.188 0.809 0.213-1.148-0.46-2.151 1.667-1.123 2.457 0.687 2.494 1.23 3.042 0.772 0.379-0.294 0.328 0.019 1.329 0.168 0.494 1.524 1.234 2.587 1.819 3.008 0.207 0.76 0.166 1.216 0 3.176 0.193 1.59 0.269 2.568 0.088 3.667-0.379-0.035-0.984-0.315-1.403-0.308-0.257 4e-3 -1.178 0.645-1.446 0.775-0.317 0.153-0.486 0.194-0.796 0.06-0.595-0.254-1.016-0.742-1.179-0.854-0.419-0.283-1.041 0.313-1.479 0.056" fill="#fff"/></g><g transform="translate(117.41 100.39)"><path d="m0 0c0.059-0.107 0.1-0.226 0.134-0.35 0.067-0.173 0.131-0.344 0.195-0.513 0.075-0.126 0.18-0.244 0.341-0.345 0.384-0.235 1.514-0.332 1.514-0.332s-0.987 0.623-1.672 1.219c-0.341 0.296-0.513 0.432-0.591 0.523 0.023-0.057 0.052-0.133 0.079-0.202" fill="#fff"/></g><g transform="translate(140.85 117.48)"><path d="m0 0c-0.354-0.12-0.724-0.18-1.035-0.299-0.325-0.105-0.473 0.045-0.754 0.195-0.311 0.149-0.37 0.314-0.946 0.598-0.059 0.06-0.119 0.09-0.163 0.09h-0.015c-0.473 0.045-0.828 0-1.212-0.299-0.104-0.09-0.251-0.225-0.399-0.36-0.015-0.029-0.045-0.045-0.059-0.074-0.06-0.06-0.119-0.105-0.193-0.195-0.31-0.374-0.784-0.045-1.064 0.195-0.932-0.225-1.346-0.375-1.848-0.45-0.607-0.089-0.637-0.194-1.169-0.179-0.133 0.015-0.724-0.09-0.798-0.21-0.4-0.584-0.754-1.197-1.139-1.826l-0.251 0.015c-0.03 0-0.059 0.015-0.089 0.015-0.769 0.015-0.887-0.15-0.636-0.958 0.104-0.344 0.311-0.659 0.444-1.003 0.281-0.644 0.089-1.003-0.547-1.197-0.577-0.18-1.139-0.405-1.73-0.554-0.651-0.165-1.316-0.42-1.981-0.404-0.341 0.015-0.681 0.089-1.021 0.284-0.443 0.255-0.902 0.344-1.375 0.359-0.311 0-0.636-0.03-0.961-0.059h-0.044c-0.222 0-0.473 0.239-0.725 0.358-0.163 0.09-0.37 0.285-0.518 0.285-0.029 0-0.044 0-0.059-0.015-0.946-0.27-1.951-0.329-2.794-1.018-0.532-0.434-1.257-0.644-1.922-0.883-0.533-0.209-1.095-0.359-1.642-0.479-0.429-0.105-0.872-0.195-1.301-0.224-0.444-0.016-0.754-0.061-0.769-0.629-0.03-0.599-0.68-1.227-1.242-1.213-0.088 0-0.177 0.015-0.251 0.06-0.237 0.105-0.444 0.15-0.666 0.15-0.576 0.015-1.108-0.269-1.685-0.374-0.163-0.015-0.37-0.165-0.444-0.315-0.458-1.093-1.286-1.586-2.38-1.901-0.651-0.179-1.302-0.254-1.937-0.224-0.518 0.015-1.05 0.09-1.582 0.209-0.089 0.015-0.163 0.18-0.223 0.285-0.251 0.419-0.458 0.898-0.768 1.257-0.917 1.063-0.68 2.365-0.828 3.592-0.045 0.465 0.236 0.958 0.355 1.453 0.576-0.016 1.02 0.299 0.887 0.808-0.237 0.883 0.266 1.108 0.857 1.422 0.193 0.09 0.37 0.18 0.518 0.165 0.163 0 0.229 0.334 0.875 0.32-0.031 0.18-0.169 0.097-0.373 0.114-0.153 0.013-0.236-0.15-0.428-0.135-0.148 0-0.296-0.045-0.458-0.135-0.193-0.104-0.37-0.269-0.577-0.314-0.681-0.165-0.858-0.584-0.681-1.242 0.119-0.39-0.059-0.599-0.502-0.734 0.148 1.662-0.532 2.739-2.041 3.353-0.606 0.255-0.976 0.808-1.183 1.542-0.103 0.344-0.221 0.688-0.355 1.033 0.015-0.015 0.03-0.03 0.06-0.03 0.103-0.045 0.222-0.105 0.325-0.105h0.045c0.014 0 0.059-0.015 0.088 0 0.074 0.03 0.133 0.075 0.34 0.225 0.222 0.149 0.4 0.299 0.518 0.433 0.089 0.12 0.133 0.21 0.162 0.3l0.045-0.045c0.044-0.03 0.103-0.06 0.192-0.06 0.074 0 0.162 0.03 0.251 0.105 0.104 0.075 0.163 0.15 0.207 0.21 0.03 0.059 0.045 0.134 0.045 0.179-0.015 0.12-0.045 0.18-0.015 0.269 0.044 0.105 0.133 0.21 0.236 0.285 0.089 0.06 0.207 0.09 0.311 0.06 0.059-0.03 0.089-0.045 0.133-0.06h0.015l0.044 0.015 0.03 0.03 0.015 0.045v0.045c0 0.014 0 0.014-0.015 0.03-0.03 0.074-0.104 0.224-0.207 0.584-0.104 0.358-0.281 0.553-0.37 0.658-0.015 0.015-0.015 0.015-0.015 0.03 0.015 0.015 0.03 0.015 0.074 0.045 0.192 0.075 0.385 0.149 0.547 0.209 0.178 0.075 0.326 0.12 0.4 0.135 0.059 0.015 0.118 0.045 0.147 0.06 0.045 0.03 0.089 0.06 0.104 0.075h0.044c0.015-0.015 0.045-0.06 0.074-0.15 0.044-0.09 0.059-0.135 0.059-0.149-0.015-0.016-0.044-0.016-0.074-0.031-0.044-0.029-0.088-0.074-0.147-0.149-0.03-0.06-0.06-0.09-0.089-0.105-0.03-0.03-0.059-0.03-0.104-0.06-0.014-0.03-0.029-0.06-0.029-0.089 0-0.045 0.015-0.061 0.029-0.09 0.015-0.045 0.074-0.105 0.133-0.195 0.074-0.09 0.119-0.165 0.148-0.21 0.015-0.06 0.015-0.089 0.059-0.119 0.015-0.031 0.059-0.045 0.089-0.045s0.045 0 0.074 0.014c0.044 0.016 0.089 0.045 0.178 0.09 0.207 0.105 0.236 0.315 0.251 0.389l0.015 0.016c0.014 0 0.059-0.016 0.177-0.105 0.251-0.165 0.429-0.15 0.503-0.165 0.044 0 0.03 0.015 0.044-0.015 0.015-0.03 0.045-0.12 0.059-0.254 0.03-0.285-0.029-0.434-0.059-0.539-0.014-0.06-0.029-0.105-0.029-0.165s0.029-0.12 0.088-0.179c0.104-0.105 0.281-0.15 0.459-0.165 0.177-0.015 0.354-0.015 0.458-0.03 0.044-0.015 0.059-0.015 0.059-0.03 0 0 0.015-0.015 0.015-0.045 0.015-0.09 0.015-0.239 0.089-0.464 0.074-0.224 0.236-0.359 0.399-0.434 0.177-0.075 0.384-0.075 0.591-0.06 0.089 0.015 0.148 0.015 0.178 0.015v-0.045c0.015-0.06 0.044-0.105 0.103-0.179 0.045-0.06 0.089-0.12 0.133-0.165 0.045-0.06 0.075-0.12 0.134-0.165 0.073-0.03 0.162-0.03 0.236 0.015 0.074 0.06 0.148 0.135 0.237 0.27 0.029 0.045 0.044 0.06 0.059 0.09v-0.135c0-0.12-0.015-0.18-0.015-0.195-0.015-0.015-0.015 0-0.044-0.015-0.015-0.015-0.074-0.044-0.118-0.089-0.045-0.06-0.089-0.15-0.119-0.27-0.029-0.12-0.044-0.195-0.059-0.24-0.029-0.029-0.029-0.029-0.045-0.029-0.014-0.015-0.059-0.03-0.103-0.075-0.044-0.03-0.103-0.105-0.163-0.195-0.103-0.18-0.192-0.224-0.28-0.299-0.03-0.045-0.074-0.105-0.074-0.18 0.014-0.075 0.044-0.149 0.088-0.254 0.059-0.105 0.074-0.165 0.089-0.195v-0.075c-0.015-0.03-0.015-0.075 0-0.12 0.015-0.059 0.044-0.119 0.089-0.209 0.059-0.09 0.133-0.165 0.192-0.225-0.266-0.089-0.518-0.194-0.769-0.284-0.133-0.045-0.469-0.142-0.426-0.428 0.473 0.209 0.811 0.248 1.106 0.383 0.06 0.015 0.104 0.045 0.163 0.06 0.044 0.015 0.088 0.03 0.133 0.045 0.015 0 0.03 0.015 0.044 0.03 0 0 0.015 0 0.015 0.015 0.015 0 0.015 0 0.015 0.015 0.414 0.194 0.813 0.374 1.227 0.569 0.207 0.089 0.429 0.179 0.666 0.209 0.355 0.06 0.724 0.09 1.094 0.09h0.443c0.178 0 0.355-0.03 0.414-0.12 0.68-0.928 1.73-1.108 2.677-1.377 0.635-0.179 0.754-0.494 0.798-1.033 0.089-1.093 0.222-2.17 0.355-3.263-0.02-0.289-4e-3 -0.529 0.285-0.675-0.06 1.422-0.211 2.98-0.389 4.342-0.059 0.45-0.399 0.719-0.872 0.869-0.828 0.239-1.626 0.598-2.41 0.898 0.251 0.554 0.414 0.942 0.621 1.317 0.296 0.494 0.281 0.868-0.118 1.347-0.37 0.449-0.577 1.063-0.34 1.752 0.103-0.031 0.207-0.045 0.31-0.045 0.547-0.015 0.858 0.389 1.109 0.868 0.148 0.269 0.281 0.554 0.459 0.793 0.428 0.554 0.31 1.018-0.148 1.512-0.828 0.943-1.627 1.916-2.426 2.889-0.783 0.958-0.798 1.332-0.206 2.395 0.206 0.344 0.37 0.703 0.576 1.048 0.06 0.105 0.207 0.269 0.281 0.269 0.488-0.164 0.961-0.389 1.523-0.628-0.251-0.255-0.428-0.375-0.532-0.539-0.119-0.21-0.325-0.554-0.237-0.674 0.134-0.225 0.444-0.359 0.71-0.464 0.059-0.015 0.133-0.03 0.192-0.03 0.133 0 0.267 0.03 0.37 0.075 0.355 0.18 0.695 0.224 1.05 0.209 0.502 0 1.005-0.149 1.508-0.209 0.784-0.105 1.553-0.255 2.336-0.27 0.651-0.015 1.316 0.045 1.982 0.285 0.103 0.045 0.192 0.075 0.295 0.09 2.484-3.787 3.564-8.592 2.692-13.517 0.103 0.584 0.236 1.167 0.384 1.721 0.059 0.195 0.118 0.374 0.178 0.554 0.118 0.374 0.236 0.734 0.369 1.093 0.074 0.209 0.163 0.419 0.251 0.628 0.133 0.315 0.267 0.629 0.414 0.944 0.104 0.209 0.207 0.419 0.326 0.628 0.147 0.285 0.31 0.569 0.473 0.854 0.133 0.209 0.251 0.403 0.384 0.598 0.178 0.27 0.355 0.539 0.547 0.794 0.133 0.194 0.266 0.374 0.414 0.569 0.207 0.254 0.414 0.493 0.621 0.733 0.148 0.164 0.296 0.344 0.444 0.509 0.236 0.239 0.488 0.479 0.724 0.703 0.148 0.15 0.296 0.285 0.444 0.419 0.296 0.27 0.606 0.509 0.917 0.749 0.118 0.09 0.222 0.18 0.34 0.269 0.429 0.315 0.873 0.614 1.331 0.898 0.118 0.06 0.236 0.12 0.355 0.18 0.34 0.209 0.694 0.404 1.049 0.569 0.178 0.09 0.37 0.164 0.548 0.24 0.31 0.134 0.62 0.269 0.931 0.389 0.207 0.074 0.414 0.134 0.621 0.209 0.296 0.09 0.606 0.195 0.902 0.27 0.222 0.059 0.444 0.104 0.665 0.149 0.296 0.075 0.607 0.135 0.917 0.18 0.222 0.045 0.444 0.075 0.68 0.105 0.311 0.03 0.622 0.059 0.947 0.075 0.221 0.015 0.443 0.029 0.68 0.029 0.088 0.015 0.192 0.015 0.295 0.015 0.266 0 0.518-0.015 0.769-0.029 0.178 0 0.355-0.015 0.518-0.015 0.089-0.016 0.192-0.016 0.281-0.031-0.37-0.239-0.148-0.718-0.222-1.182-0.074-0.404-0.266-1.243-0.207-1.646 0.133-0.899-0.429-1.138-0.295-1.812-0.37-0.404-0.4-1.033-0.548-1.407-0.133-0.299-0.532-0.718-0.931-0.853-0.178-0.06-0.37-0.853-0.429-1.078-0.296-0.464 0.015-0.374 0.34-0.314l0.015 0.015c0.044-0.03 0.074-0.045 0.103-0.03 0.074 0.045 0.148 0.075 0.222 0.105 1.671 0.029 1.73-0.808 2.425-2.081 0.119-0.359 0.192-0.688 0.266-1.018" fill="#fff"/></g><g transform="translate(96.777 117.47)"><path d="m0 0c-0.52 0.917-0.807 1.906-1.709 2.665-0.67 0.567-1.215 1.302-2.017 1.742-0.439 0.239-0.848 0.544-1.263 0.812-0.155 0.105-0.303 0.201-0.457 0.299-0.022-0.235-0.084-0.477-0.048-0.709 0.022-0.157 0.224-0.272 0.269-0.436 0.052-0.224 0.025-0.477 0.033-0.712-0.037 4e-3 -0.074 4e-3 -0.114 4e-3 -0.372 0.089-0.689 0.108-1.068 0.287-0.199 4e-3 -0.261-0.194-0.416-0.72-0.063-0.246-0.104-0.503-0.107-0.756-0.022-0.37-0.033-0.679-0.472-0.854-0.194-0.078-0.363-0.496-0.357-0.75 0.019-0.327 0.755-0.354 0.906-0.659 0.546-1.058 0.653-1.592-0.434-2.084 0.714-1.07 1.521-1.383 2.338-2.207 0.402-0.313 0.442-0.745 0.7-0.987 0.6-0.522 0.596-0.373 0.655-0.012 0.28 0.947-0.125 1.066 0.512 2.01 0.542 0.775 0.986 1.614 1.469 2.433 0.015-3e-3 0.029-3e-3 0.041-3e-3 0.048 0 0.092 0 0.136-3e-3h0.044c0.096-0.205 0.166-0.433 0.295-0.608 0.122-0.164 0.313-0.373 0.471-0.377h4e-3c0.717-4e-3 1.078 0.612 0.78 1.279-0.059 0.115-0.125 0.231-0.191 0.346" fill="#fff"/></g><g transform="translate(90.1 160.52)"><path d="m0 0c-2.198-0.831-4.356-1.756-6.452-2.808-2.113-1.017-4.134-2.21-6.096-3.499l-1.462-0.988-1.41-1.066-0.715-0.526-0.678-0.573c-0.452-0.381-0.912-0.757-1.381-1.13 0.391 0.451 0.784 0.899 1.186 1.341l0.608 0.665 0.651 0.618 1.326 1.216c0.465 0.375 0.94 0.741 1.411 1.11 0.239 0.182 0.471 0.372 0.714 0.552l0.743 0.499c0.502 0.328 0.991 0.678 1.503 0.987 1.035 0.608 2.069 1.212 3.144 1.734 2.151 1.055 4.371 1.957 6.655 2.639 2.282 0.682 4.62 1.201 6.988 1.394-2.291-0.618-4.529-1.349-6.735-2.165m65.766-46.4c1.412 26.412-15.601 50.168-40.603 55.395l0.876 4.801c0.044 0.242-0.111 0.473-0.35 0.518l-1.381 0.258c-0.026 4e-3 -0.055 8e-3 -0.081 8e-3 -0.206 0-0.391-0.15-0.427-0.362l-0.877-4.806c-2.616 0.422-5.22 0.638-7.8 0.638-22.436 0-42.757-15.514-49.788-38.29 0.185 0.451 0.389 0.89 0.604 1.321 0.071 0.139 0.149 0.273 0.223 0.41 0.152 0.285 0.306 0.569 0.472 0.844 0.095 0.158 0.197 0.311 0.297 0.466 0.158 0.245 0.318 0.488 0.486 0.723 0.111 0.156 0.226 0.308 0.341 0.46 0.172 0.225 0.348 0.446 0.529 0.662 0.121 0.146 0.244 0.29 0.369 0.431 0.191 0.213 0.386 0.419 0.586 0.623 0.127 0.129 0.252 0.26 0.383 0.386 0.218 0.21 0.444 0.41 0.672 0.608 0.12 0.105 0.237 0.213 0.36 0.315 0.299 0.245 0.607 0.478 0.919 0.703 0.06 0.043 0.115 0.09 0.175 0.132 0.374 0.262 0.759 0.508 1.151 0.739 0.119 0.07 0.241 0.13 0.36 0.197 0.279 0.156 0.559 0.308 0.846 0.449 0.155 0.075 0.314 0.143 0.471 0.213 0.259 0.117 0.519 0.23 0.783 0.334 0.171 0.067 0.344 0.128 0.517 0.189 0.259 0.092 0.52 0.178 0.783 0.257 0.179 0.053 0.358 0.104 0.538 0.152 0.267 0.07 0.537 0.131 0.808 0.189 0.18 0.037 0.358 0.075 0.538 0.107 0.287 0.05 0.578 0.088 0.869 0.123 0.167 0.02 0.332 0.045 0.5 0.06 0.35 0.031 0.703 0.045 1.057 0.053 0.111 3e-3 0.22 0.013 0.332 0.013 0.015 0 0.029 2e-3 0.044 2e-3 0.309 0 0.621-0.024 0.933-0.042 0.165-9e-3 0.328-7e-3 0.493-0.022 0.492-0.043 0.986-0.108 1.481-0.197 9.33-1.689 15.457-11.056 13.701-20.923 0.105 0.586 0.238 1.159 0.392 1.722 0.052 0.188 0.117 0.368 0.174 0.553 0.114 0.37 0.229 0.738 0.363 1.097 0.079 0.211 0.17 0.415 0.256 0.622 0.132 0.32 0.268 0.638 0.417 0.946 0.102 0.213 0.211 0.418 0.32 0.625 0.155 0.292 0.313 0.579 0.481 0.859 0.121 0.204 0.247 0.402 0.375 0.6 0.176 0.27 0.358 0.533 0.547 0.792 0.138 0.189 0.277 0.377 0.421 0.561 0.2 0.253 0.408 0.497 0.62 0.739 0.149 0.169 0.296 0.341 0.45 0.504 0.231 0.245 0.473 0.476 0.715 0.706 0.151 0.142 0.297 0.29 0.451 0.427 0.291 0.257 0.595 0.497 0.901 0.734 0.119 0.092 0.232 0.192 0.352 0.281 0.431 0.316 0.874 0.612 1.33 0.887 0.115 0.069 0.236 0.126 0.353 0.193 0.347 0.198 0.697 0.392 1.057 0.565 0.178 0.086 0.362 0.159 0.543 0.239 0.306 0.135 0.613 0.268 0.927 0.384 0.205 0.077 0.413 0.141 0.62 0.209 0.301 0.098 0.602 0.192 0.908 0.274 0.218 0.057 0.438 0.107 0.659 0.156 0.305 0.068 0.61 0.128 0.919 0.178 0.225 0.036 0.45 0.069 0.677 0.096 0.314 0.038 0.63 0.064 0.947 0.083 0.226 0.013 0.451 0.027 0.678 0.032 0.102 2e-3 0.202 0.014 0.304 0.014 0.256 0 0.514-0.022 0.771-0.034 0.174-9e-3 0.345-0.01 0.519-0.024 0.537-0.042 1.076-0.106 1.617-0.203 9.331-1.688 15.458-11.056 13.701-20.924 0.105 0.587 0.238 1.16 0.392 1.723 0.052 0.188 0.117 0.367 0.174 0.552 0.114 0.37 0.229 0.74 0.363 1.098 0.079 0.211 0.17 0.414 0.256 0.621 0.133 0.32 0.268 0.638 0.417 0.948 0.102 0.212 0.212 0.417 0.321 0.624 0.154 0.291 0.313 0.578 0.48 0.859 0.122 0.203 0.247 0.402 0.376 0.599 0.176 0.271 0.359 0.535 0.548 0.795 0.137 0.188 0.275 0.375 0.419 0.557 0.2 0.255 0.41 0.5 0.623 0.743 0.148 0.168 0.293 0.339 0.447 0.501 0.233 0.247 0.476 0.479 0.721 0.711 0.148 0.141 0.292 0.287 0.445 0.422 0.293 0.259 0.598 0.5 0.906 0.738 0.118 0.091 0.229 0.19 0.348 0.277 0.431 0.317 0.875 0.613 1.331 0.888 0.113 0.068 0.232 0.125 0.347 0.19 0.348 0.2 0.7 0.394 1.061 0.568 0.178 0.086 0.361 0.159 0.542 0.238 0.307 0.135 0.616 0.269 0.931 0.386 0.203 0.076 0.409 0.139 0.614 0.207 0.302 0.099 0.606 0.194 0.914 0.275 0.217 0.058 0.435 0.107 0.654 0.156 0.306 0.068 0.614 0.128 0.924 0.179 0.224 0.036 0.448 0.068 0.673 0.095 0.315 0.038 0.632 0.064 0.95 0.083 0.225 0.014 0.45 0.028 0.676 0.032 0.102 2e-3 0.203 0.014 0.305 0.014 0.257 0 0.515-0.021 0.773-0.034 0.172-8e-3 0.343-9e-3 0.516-0.023 0.537-0.043 1.076-0.106 1.617-0.204 8.035-1.454 13.687-8.592 13.981-16.848" fill="#fff"/></g></g><text transform="matrix(.98782 0 0 -1 216.5 113.92)" fill="#ffffff" font-family="'Playfair Display'" font-size="27.673px"><tspan x="0 17.461916 38.687412 55.817249 62.984657 79.007561 88.665573 106.87467 122.09504 139.55696 146.72437 161.94473 179.07457 196.89624 204.06364 229.38481 250.16754 268.37665 286.77945 303.90927 322.11838" y="0">THE FIRST SEX WORKERS</tspan><tspan x="0 19.316032 40.098755 56.647449 73.196144 90.325981 109.64201 127.10393 136.76195 154.47292 171.60275 178.77016 188.42818 208.24234 215.40974 232.87166 254.09715 271.22699 278.39441 295.91165 313.62265 330.17133 348.57416 366.28513 386.09927" y="33.20808">COLLECTIVE IN THE BALKANS</tspan></text></g></svg>
