<?xml version="1.0" encoding="UTF-8"?>
<svg width="894.12" height="290.82" version="1.1" viewBox="0 0 894.12 290.82" xml:space="preserve" xmlns="http://www.w3.org/2000/svg" xmlns:cc="http://creativecommons.org/ns#" xmlns:dc="http://purl.org/dc/elements/1.1/" xmlns:rdf="http://www.w3.org/1999/02/22-rdf-syntax-ns#"><metadata><rdf:RDF><cc:Work rdf:about=""><dc:format>image/svg+xml</dc:format><dc:type rdf:resource="http://purl.org/dc/dcmitype/StillImage"/><dc:title/></cc:Work></rdf:RDF></metadata><defs><clipPath id="clipPath30"><path d="M 0,218.118 H 670.588 V 0 H 0 Z"/></clipPath></defs><g transform="matrix(1.3333 0 0 -1.3333 0 290.82)"><path d="m200.43 183.73h1.982v-147.86h-1.982z" fill="#fff"/><g clip-path="url(#clipPath30)"><g transform="translate(61.126 74.68)"><path d="m0 0c-10.305 11.426-16.578 26.561-16.578 43.161 0 35.61 28.865 64.474 64.473 64.474 35.605 0 64.473-28.864 64.473-64.474 0-17.063-6.633-32.585-17.461-44.118" fill="none" stroke="#fff" stroke-linecap="round" stroke-linejoin="bevel" stroke-miterlimit="10" stroke-width="1.596"/></g><g transform="translate(133.1 110.91)"><path d="m0 0c-1.03-0.313-2.07-0.574-3.104-0.857-0.249-0.073-0.494-0.096-0.731-0.092-0.51 0.015-1.003 0.168-1.508 0.317-0.56 0.169-1.187 0.082-1.777 0.176-0.405 0.062-0.799 0.231-1.186 0.364-0.145 0.058-0.291 0.253-0.394 0.257-8e-3 0-0.016-4e-3 -0.023-4e-3 -0.751-0.173-1.516-0.318-2.228-0.613-0.761-0.313-1.432-1.033-2.197-1.12-1.183-0.127-2.189-0.928-3.387-0.897-0.123 4e-3 -0.249 0.015-0.372 0.039h-0.011c-0.131 3e-3 -0.418-0.272-0.425-0.433-0.076-0.861-0.865-1.512-1.73-1.492-0.138 3e-3 -0.276 0.026-0.414 0.064-0.221 0.066-0.451 0.1-0.677 0.104-0.865 0.023-1.68-0.379-2.056-1.148-0.658-1.363-2.013-1.264-3.138-1.658-0.246-0.084-0.537-0.065-0.8-0.095-0.62-0.066-0.877-0.521-0.578-1.05 0.532-0.956 0.436-1.431-0.502-2.002-0.512-0.305-0.704-0.642-0.59-1.251 0.158-0.838-0.363-1.577-1.178-1.78-0.533-0.138-0.884-0.314-0.575-0.973 0.207-0.412 0.101-0.78-0.275-1.136-0.364-0.344-0.582-1.107-0.593-1.531-2e-3 -0.06-0.031-0.169-0.07-0.303-0.036-0.236-0.095-0.476-0.166-0.722-0.051-0.345-0.045-0.699 0.148-0.942 0.459-0.575 0.972-0.345 1.826-0.514 0.589-0.29 0.57-0.826 0.921-1.205 0.116-0.321 0.361-0.628 0.786-1.244 0.122 0.276-0.023 0.636 0.291 0.628 0.616-0.139 1.5-0.425 2.151-0.54 0.272-0.774 0.605-1.152 0.696-1.715-0.984 0.111-1.665 0.123-2.649 0.352-0.084-0.302-0.206-0.734-0.206-0.734s0.608 0.194 0.915 0.13c0.038-0.514 4e-3 -0.571 0.05-1.041 0.195 0.05 0.325 0.232 0.47 0.134 0.36-0.854 0.284-1.119 0.843-0.835 0.103-0.245 0.221-1.643 0.221-1.643s0.077-0.06 0.157-0.064c0.115-4e-3 0.598 1.336 1.054 1.803 0.221-0.226 0.783-1.217 0.964-1.294 0.401-0.169 1.596 0.386 1.833 0.445 0.41 0.11 0.654 0.665 1.44 0.347 0.807-0.321 1.289-0.588 1.96-0.103 0.297 0.349 0.451 0.724 0.776 0.624 0.436-0.138 0.211-0.291 0.631-0.83 0.368 0.473 0.464 0.493 0.693 0.42 1.375-0.497 1.061-0.723 3.775-1.366 1e-3 -0.013-1e-3 -0.022 0-0.035 0.032-4e-3 0.062-8e-3 0.094-0.014-0.03-0.124-0.07-0.229-0.114-0.321-0.041-0.206-0.156-0.333-0.381-0.422-8e-3 -5e-3 -0.017-7e-3 -0.025-0.011-0.019-7e-3 -0.033-0.016-0.054-0.023-0.18-0.082-0.378-0.114-0.577-0.13-0.151-0.025-0.316-0.052-0.509-0.082 5e-3 -0.166 4e-3 -0.297 9e-3 -0.421 2e-3 -0.016 4e-3 -0.033 6e-3 -0.047 8e-3 -0.12 0.022-0.234 0.065-0.366-1.209 0.073-1.526 0.582-2.255 0.854-1.327 0.502-2.235 0.375-3.375 0.808-0.893 0.102-1.657 0.264-2.066 0.218-0.298-0.129-0.572-0.365-0.831-0.726-0.051-0.163-0.111-0.314-0.402-0.362-0.085 0.024-0.597-0.035-0.667-0.035-0.482 0.017-0.52-0.053-0.746-0.351-0.479-0.62-0.686-1.014-1.168-1.795 0.146-0.114 0.49-0.391 0.85-0.651 0.223-0.176 0.146-0.513 0.594-0.796 1.313-0.828 2.377-1.413 2.354-2.994-0.199-0.856-0.663-0.666-0.344-1.535 0.179-0.497 0.63-0.635 1.002-0.953-0.138-0.245-0.448-0.85-0.307-0.937 0.243-0.126 1 0.145 1.214-0.184-0.103 0.287-0.375 1.247-0.272 1.466 0.188 0.41 0.203 0.582 1.191 0.747 0.551 0.026 0.746-0.089 0.773-0.333-0.023-0.544 0.146-0.606 0.559-0.717 0.623-0.164 0.78 0.02 0.862-0.214 0.041-0.135 0.057-0.28 0.072-0.436 0.015-0.081 0.031-0.18 0.049-0.306 0.044-0.33 0.197-0.644 0.322-0.959 0.048 0.018 0.115 0.06 0.203 0.098-0.084 0.351-0.241 0.692-0.291 0.811 0.111 0.16 0.153 0.265 0.314 0.379 0.195 4e-3 0.394-0.126 0.65-0.165 0.242 0.203 0.544 0.33 0.705 0.349 0.494-0.016 0.75-0.169 0.907-0.376 0.034-0.121 0.022-0.274 0.024-0.43 0.045-0.219 0.101-0.377 0.172-0.482 0.16-0.077 0.387-0.118 0.62-0.191 0.295-0.125 0.413-0.202 0.643-0.232-0.043 0.198-0.261 0.439-0.376 0.59-0.245 0.347 0.119 0.558 0.016 1.323-0.046 0.406-0.192 0.475-0.682 1.329-0.326 0.382-0.807 1.344-1.496 2.437-0.344 0.472-0.533 1.165-0.601 1.715 0.417 0.046 1.068-0.022 1.466-0.114 0.463-0.072 0.929-0.23 1.764-0.468 0.023-0.09 0.03-0.158 0.043-0.234 0.039-0.088 0.055-0.196 0.04-0.343 9e-3 -0.229-0.015-0.351 0.013-0.333 0.395 0.241 0.911 0.735 1.519 0.938-0.054 0.153-0.122 0.375-0.172 0.49-0.034 0.102-0.141 0.325-0.237 0.566l-5e-3 -0.02c-0.021-0.168-0.041-0.335-0.065-0.504-0.02 6e-3 -0.037 0.015-0.057 0.02-2e-3 -9e-3 -5e-3 -0.017-7e-3 -0.028-0.29-0.019-0.77 0.253-0.915 0.38-0.283 0.251-0.49 0.45-0.57 1.006-0.02 0.237-0.024 0.351-0.016 0.815 0 0-0.512 0.126-1.239 0.398 0.983 0.494 2.502 1.283 3.364 1.715 7e-3 -0.017 0.017-0.033 0.025-0.049 7e-3 4e-3 0.014 8e-3 0.02 0.01 9e-3 4e-3 0.026-6e-3 0.036-4e-3 0.014 0.016 0.029 0.033 0.069 0.05 0.052-0.029 0.106-0.051 0.159-0.08 0.117-0.044 0.241-0.107 0.345-0.157 0.04-0.018 0.076-0.048 0.113-0.072 0.672-0.312 1.317-0.55 1.71-0.869 0.29-0.227 0.416-0.67 0.647-1.095 0.064-0.096 0.068-0.157 0.291-0.222 0.241 0.409-0.227 0.988-0.365 1.213-0.252 0.51-0.222 1.103-0.125 1.75 0.061 0.398 0.133 0.525 0.195 0.838-0.896 0.451-1.964 0.409-2.5 0.903-0.474 0.402-0.777 0.824-1.064 0.908-0.352 0.038-0.57-0.319-0.712-0.249-0.249 0.115-0.367 0.785-0.486 0.995-0.268 0.485-0.445 0.253-1.049 0.069-0.119 7e-3 -0.371 0.015-0.448 0.114-0.218 0.287-0.375 0.509-0.547 0.586-0.463 0.196-0.697 0.126-1.443 0.26-0.506 0.135-0.67 0.038-1.566 0.464-0.012 0.072-0.042 0.195-0.05 0.267 1.053 0.486 1.6 0.617 3.048 0.996-0.632 0.47-0.602 0.516-1.161 1.136-0.642 0.701-0.987 1.091-0.987 1.091 0.192 0.054 0.417 0.203 0.475 0.245 0 0 0.478 0.405 0.861 0.801l0.061-0.04c4e-3 3e-3 6e-3 6e-3 0.01 9e-3 0.618-0.41 1.318-0.865 2.135-1.401-0.327 0.589-2.339 2.568-3.052 3.349-0.49 0.635-0.585 0.926-0.85 1.24-0.325 0.383-0.413 0.724-0.807 1.033-0.793 0.964-0.95 1.245-0.559 2.474 0.103 0.194-0.042 1.083-0.046 1.492 0.257 0.226 0.444 0.264 0.876 0.808 0.142 0.152 0.486 0.413 0.958 0.726 0.031-0.018 0.046-0.045 0.072-0.066 0.012 0.011 0.022 0.019 0.034 0.029 0.022-0.036 0.025-0.066 0.044-0.101 0.077-0.094 0.119-0.2 0.136-0.31 0.013-0.05 8e-3 -0.094 0.013-0.14 1e-3 -0.016 1e-3 -0.03 0-0.045 5e-3 -0.095 3e-3 -0.189-0.029-0.274-0.117-0.758-0.398-0.826 0.406-1.155 0.353-0.141 1.379-0.467 2.035-0.837 0.04-0.015 0.081-0.026 0.12-0.043 6e-3 -2e-3 0.014 0 0.022 0-0.074 0.1 4e-3 0.133 0.193 0.241 0.735 0.412 1.241 0.245 1.626 0.038 0.088-0.057 0.155-0.106 0.229-0.157 0.035-0.018 0.065-0.047 0.099-0.068 0.37-0.261 0.593-0.451 0.855-0.663 0.514-0.495 0.732-0.728 0.771-0.635-0.028 0.295 0.038 0.589-0.448 0.941-0.219 0.15-0.651 0.406-0.763 0.487-0.631 0.558-0.811 0.65-0.413 1.04 0.353 0.314 0.498 0.425 0.923 0.414 0.092-4e-3 0.528-0.169 0.604-0.207 0.563-0.259 0.712-0.301 1.167-0.533 0.416-0.172 0.866-0.36 1.352-0.564 6e-3 -2e-3 8e-3 -2e-3 8e-3 -2e-3s-0.264 0.257-0.559 0.522c-0.636 0.665-1.333 0.761-1.99 0.971-0.425 0.058-0.809 0.18-1.053 0.253-0.406 0.142-0.077 0.437-0.115 0.762-0.065 0.62-0.287 0.348-0.751 0.646-0.294 0.181-0.454 0.352-0.133 0.639 0.157 0.135 0.838 0.498 1.045 0.49 0.142-0.027 0.29-0.052 0.446-0.071 0.017-2e-3 0.033-3e-3 0.051-5e-3 0.155-0.017 0.319-0.026 0.498-0.018 0.367 0.045 0.432 0.064 0.788 0.363 0.345 0.329 0.425 0.371 0.724 0.956 0.149 0.241 0.558 0.724 0.727 0.831 0.827 0.329 1.091-0.409 1.94-0.295 1.203 0.41 1.18 0.486 1.52 0.67 0.279 0.153 0.387 0.111 0.613 0.073 0.873-0.141 0.555 0.256 1.443 0.211l0.31 0.107c0.359 0.122 0.053 0.069 0.437 0.061l0.038-4e-3c0.818-0.03 0.884-0.123 0.663-0.883 0.01-1e-3 0.019-3e-3 0.028-4e-3 0.655 0.48 1.353 2.012 1.195 2.797-0.207 1.053 0.046 1.875 0.95 2.53 0.57 0.425 0.471 1.44-0.177 1.7-0.757 0.306-1.561 0.474-2.346 0.704l-0.222-0.264c0.196-0.475 0.356-0.969 0.59-1.431 0.428-0.87 0.271-1.372-0.651-1.643" fill="#fff"/></g><g transform="translate(122.17 127.55)"><path d="m0 0c-0.753-0.292-1.506-0.384-2.259-0.369-0.876 0.031-1.737 0.184-2.598 0.338-0.446 0.062-0.876 0.169-1.307 0.184-0.368 0.016-0.707-0.046-1.06-0.245-0.077-0.031-0.154-0.047-0.246-0.047-0.03 0-0.061 0-0.092 0.016-0.277 0.046-0.538 0.123-0.815 0.2 0.108 0.215 0.2 0.461 0.354 0.645 0.492 0.646 0.507 0.83-0.246 1.107-0.846 0.307-1.46 0.876-2.137 1.399-0.384 0.292-0.415 0.63-0.015 0.953 0.184 0.123 0.415 0.199 0.553 0.369 0.093 0.122 0.185 0.399 0.108 0.507-0.261 0.4-0.661 0.599-1.061 0.615-0.492 0-0.999-0.246-1.245-0.769-0.138-0.261-0.292-0.538-0.476-0.891-0.215 0.23-0.385 0.399-0.554 0.568-0.353 0.354-0.66 0.784-1.153 0.799-0.153 0.016-0.322-0.03-0.507-0.107-0.015-0.015-0.031-0.015-0.061-0.015-0.123 0-0.384 0.153-0.461 0.292-0.216 0.338-0.477 0.522-0.83 0.522-0.169 0.016-0.338-0.015-0.538-0.076 0.261 0.292 0.445 0.506 0.584 0.645-0.123 0.292-0.292 0.523-0.308 0.784 0 0.031 0 0.046-0.015 0.077 0.015 0.015 0.046 0.015 0.061 0.015 0.324 0.031 0.661 0.062 0.984 0.077 0.231 0.015 0.477 0.031 0.707 0.031 0.108 0 0.216 0.015 0.323 0.015 0.262 0 0.523-0.015 0.799-0.031 0.169-0.015 0.354-0.015 0.538-0.03 0.554-0.031 1.122-0.108 1.676-0.2 4.765-0.846 8.715-3.597 11.297-7.378" fill="#fff"/></g><g transform="translate(102.14 114.15)"><path d="m0 0c-0.555 0.214-1.098 0.612-1.512 1.052-0.257 0.265-0.49 0.406-0.746 0.41-0.172 8e-3 -0.352-0.05-0.555-0.176-0.18-0.107-0.337-0.157-0.475-0.153-0.252 4e-3 -0.443 0.195-0.593 0.524-0.054 0.126-0.161 0.237-0.287 0.406-0.406-0.701-0.728-1.366-1.149-1.956-0.363-0.513-0.681-1.324-0.532-1.926 8e-3 -0.504 0.131-0.823 0.406-1.217 0.728-0.44 1.088-0.152 1.497-0.291 0.394-0.141-0.111-0.498-0.219-0.865-0.06-0.222 0.127-0.402 0.089-0.627-0.073-0.452-0.012-0.942-0.528-1.157-0.119-0.24-0.046-0.666-0.486-1.507 0.474-0.027 0.711 0.015 0.807-0.242 0.138-0.371-0.142-0.696-0.245-1.224-0.195-0.356-0.069-0.716 8e-3 -0.98 0.141-0.513 0.669-0.662 0.474-1.057-0.107-0.222-0.608-0.214-0.791-0.489-0.227-0.346-0.139-0.973-0.215-1.218-0.1-0.321 0.211-0.318 0.386-0.643 0.165-0.298 0.13-0.386 0.299-1.34 0.202-0.968-0.663-0.884 0.199-1.369 0.785-0.434 1.826-0.563 2.58-1.046 0.528-0.348 0.961-1.152 0.742-1.886-0.195-0.659 0.904-1.762 0.83-0.261l0.441-0.046c0.294 0.497 0.509 0.849 0.639 1.098 0.272 0.532 0.165 0.472 0.084 0.769-0.214 0.79-0.08 1.119 0.682 1.326 0.811 0.224 1.087 0.485 0.987 1.304-0.099 0.888 0.181 1.42 0.992 1.799 0.624 0.291 0.639 0.694 0.348 1.324-0.172 0.391-0.214 0.858-0.364 1.482-0.635 0.157-1.634 0.291-1.902 1.416-0.019 0.084-0.092 0.158-0.157 0.223-0.662 0.608-1.056 1.32-0.865 2.262 0.031 0.156-0.103 0.348-0.122 0.524-0.069 0.436-0.203 0.884-0.146 1.317 0.073 0.631 0.26 1.259 0.433 1.886 0.203 0.767-0.215 2.237-1.034 2.554" fill="#fff"/></g><g transform="translate(96.152 124.49)"><path d="m0 0c0.169-0.215 0.185-0.615 0.138-0.922-0.015-0.077-0.461-0.123-0.707-0.154-0.599-0.077-1.214-0.092-1.798-0.261-0.169-0.046-0.307-0.507-0.323-0.784 0-0.2 0.246-0.415 0.369-0.63 0.077-0.139 0.077-0.308 0.123-0.446-0.154 0.031-0.307 0.046-0.446 0.077-0.215 0.077-0.445 0.261-0.661 0.261-0.123 0-0.23-0.046-0.338-0.23-0.231-0.477-0.307-1.015-0.461-1.522-0.092-0.246-0.154-0.615-0.338-0.692-0.523-0.261-0.676-0.614-0.476-1.122 0.168-0.43 0.983-0.538 1.091-0.999 0.077-0.261 0.261-0.83 0.092-1.03-0.431-0.43-0.846-0.476-1.383-0.445-0.016 0.061-0.031 0.123-0.047 0.184 0.093 0.077 0.2 0.184 0.123 0.277-0.215 0.246-0.784 0.261-1.398 0.768-1.184 0.723-2.122 1.983-3.505 2.444-0.292 0.092-0.446-0.107-0.753-0.2-0.63 0.339-1.522 1.445-1.983 1.891-0.815 0.814-1.829 1.076-2.905 1.537-0.845 0.369-1.337 0.477-2.244 0.738-0.399 0.107-1.599-0.216-1.844 0.107-0.723 0.892-0.692 1.046-0.969 1.922-1.429 0.184-1.86 0.784-2.521 1.23-1.045 0.691-1.429 1.26-1.26 1.628 0.615-0.122 0.999-0.568 1.429-0.707 0.784-0.276 0.876-0.122 1.384 0.016-0.307 0.292-0.692 0.814-1.03 1.076-0.477 0.4-1.23 0.722-1.491 1.06-0.307 0.415-1.506 2.045-1.752 2.767-0.031 0.892-0.093 1.583-0.169 2.137-0.016 0.476-0.123 0.968-0.277 1.429-0.123 0.369-0.231 0.584-0.307 0.722-0.308 0.308-0.508 0.539-1 0.631-0.584-0.092-0.691-0.815-1.245-2.383-0.169 0.093-0.353 0.277-0.507 0.508-0.2-0.231-0.538-2.198-0.661-2.198-0.107 0.015-0.446 0.077-0.492 0.445-0.03 0.292-0.215 0.815-0.384 1.015-0.061 0.092-0.138 0.23-0.353 0.184 0.184 0.108 0.353 0.431 0.537 0.723-0.261-0.062-0.292-0.047-0.399-0.047-0.138 0.293-0.261 0.6-0.4 0.908-0.015 0.061-0.03 0.123-0.061 0.184-0.062 0.2-0.169 0.4-0.262 0.584-0.015 0.015-0.015 0.015-0.015 0.031-0.107 0.276-0.123 0.446-0.092 0.538 0.015 0.03 0.015 0.061 0.046 0.077 0.077 0.076 0.215 0.061 0.323 0.03 0.23-0.092 2.244-0.645 2.152-0.23v0.015c0 0.031 0 0.046-0.016 0.092-0.184 0.262-2.075 0.277-2.136 0.554 0.138 0.215 0.415 0.246 0.707 0.4 0.814 0.368 0.983 0.645 1.03 0.875-0.047 0.139-0.216 0.277-0.415 0.446 0.215 0.108 0.43 0.2 0.661 0.292 0.184 0.062 0.353 0.123 0.537 0.185 0.277 0.092 0.539 0.184 0.815 0.276 0.184 0.047 0.369 0.092 0.569 0.154 0.277 0.062 0.553 0.123 0.83 0.185 0.184 0.045 0.369 0.076 0.569 0.107 0.292 0.062 0.599 0.092 0.891 0.139 0.185 0.015 0.354 0.046 0.523 0.061 0.368 0.03 0.738 0.046 1.107 0.046 0.107 0 0.23 0.015 0.338 0.015h0.046c0.323 0 0.645-0.015 0.968-0.046 0.169 0 0.338 0 0.523-0.015 0.507-0.046 1.014-0.108 1.537-0.2 0.384-0.077 0.768-0.154 1.153-0.246-0.046-0.138-0.093-0.276-0.154-0.43-0.231-0.553-0.523-0.892-1.137-0.999-0.662-0.108-0.923-0.385-0.677-0.845 0.246-0.508 0.354-1-0.153-1.384-0.354-0.262-0.662-0.4-0.969-0.385-0.292 0-0.569 0.139-0.861 0.385-0.522 0.461-1.029 0.953-1.583 1.46-1.399-1.368-2.966-0.738-4.596-1.153 0.231-0.076 0.43-0.138 0.676-0.153 0.615 0.123 1.184 0.077 1.492 0.123 0.061 0 0.138-0.016 0.215-0.016 0.092-0.03 0.2-0.03 0.292-0.03 0.568-0.016 0.999 0.215 1.414 0.553 0.2 0.138 0.354 0.215 0.507 0.2 0.169 0 0.338-0.108 0.523-0.323 0.292-0.354 0.615-0.676 0.953-0.953 0.261-0.215 0.584-0.307 0.907-0.323 0.738-0.015 1.506 0.446 1.629 1.168 0.061 0.431-0.169 0.907-0.277 1.43 0.4 0.184 0.677-0.077 1.076 0.153 0.262 0.169 0.677 0.415 0.692 0.662 0.061 0.783-0.046 0.538 0.169 0.83 4.104-1.077 7.532-3.582 9.868-6.917-0.354 0-0.722 0.138-1.106 0.23-0.031 0-0.062 0.016-0.093 0.016-0.169 0-0.369-0.077-0.569-0.108-0.107-0.015-0.215-0.046-0.322-0.046-0.047 0-0.078 0-0.108 0.015-0.876 0.323-1.768 0.646-2.72 0.999-0.17-0.522-0.769-0.415-1.323-0.461-0.276-0.015-0.584-0.215-0.768-0.415-0.354-0.415-0.599-0.599-0.876-0.599-0.231 0-0.477 0.169-0.83 0.476-0.123 0.108-0.231 0.262-0.385 0.323-0.169 0.046-0.415 0.138-0.553 0.138-0.061 0-0.107-0.015-0.123-0.03-0.338-0.415-0.645-0.861-0.814-1.353-0.154-0.461-0.139-0.984-0.154-1.475-0.031-0.523 0.061-1.077 0.661-1.184 0.753-0.123 0.999-0.63 1.168-1.23 0.292-1.137 0.753-2.167 1.614-2.997 0.2-0.2 0.369-0.431 0.553-0.661-0.015-0.077-0.046-0.154-0.061-0.231-0.261 0.016-0.507 0.047-0.754 0.047h-0.261c-0.399-0.047-0.922-0.031-1.168-0.262-0.43-0.415-0.323-1.014-0.03-1.521 0.061 0.215 0.107 0.43 0.091 0.66-0.046 0.769 0.231 0.984 0.861 0.969h0.2c0.139-0.016 0.262-0.062 0.4-0.062h0.076c0.324 0.046 0.646 0.108 0.984 0.185-0.138 0.246-0.215 0.538-0.384 0.722-0.907 0.953-1.614 1.983-1.906 3.29-0.123 0.599-0.446 1.137-1.168 1.337-0.231 0.061-0.523 0.43-0.538 0.692-0.061 0.583-0.031 1.198 0.092 1.767 0.092 0.384 0.384 0.754 0.676 1.015 0.016 0.015 0.031 0.015 0.047 0.015 0.138 0 0.538-0.276 0.768-0.446 0.415-0.353 0.63-0.522 0.845-0.522 0.231-0.016 0.446 0.184 0.923 0.599 0.261 0.246 0.661 0.599 0.953 0.584h0.046c0.184-0.031 0.338-0.061 0.476-0.061 0.369 0 0.631 0.092 0.769 0.384 0.984-0.369 1.875-0.707 2.782-1.03h0.015c0.047 0 0.108 0.062 0.169 0.092 0.231 0.124 0.462 0.185 0.677 0.169 0.323 0 0.63-0.138 0.922-0.353 0.154-0.108 0.307-0.169 0.431-0.185 0.045 0 0.092 0 0.138 0.016 2.551-3.874 3.658-8.777 2.751-13.803 0.108 0.599 0.246 1.183 0.415 1.767 0.046 0.2 0.123 0.385 0.185 0.569 0.107 0.384 0.23 0.754 0.368 1.122 0.077 0.216 0.185 0.431 0.262 0.646 0.138 0.322 0.292 0.645 0.445 0.968 0.093 0.215 0.216 0.431 0.323 0.646 0.169 0.292 0.323 0.584 0.508 0.876 0.123 0.215 0.246 0.415 0.384 0.615 0.184 0.277 0.368 0.553 0.569 0.814 0.138 0.2 0.292 0.384 0.445 0.585 0.2 0.261 0.415 0.507 0.646 0.753 0.015 0.015 0.031 0.03 0.046 0.046 0.353-0.83 0.861-1.537 1.629-2.044 0.108-0.077 0.246-0.323 0.216-0.4-0.078-0.169-0.262-0.338-0.431-0.369-0.031-0.016-0.062-0.016-0.092-0.016-0.169 0-0.354 0.093-0.523 0.093h-0.046c-0.215 0.015-0.43-0.031-0.63-0.046-0.046-0.093-0.092-0.2-0.138-0.292 0.522-0.508 1.091-0.984 1.552-1.553" fill="#fff"/></g><g transform="translate(114.3 120.97)"><path d="m0 0c-0.384-0.661-0.738-1.122-1.537-1.183-0.108-0.016-0.307-0.369-0.276-0.507 0.168-0.631 0.415-1.246 0.614-1.86 0.062-0.2 0.123-0.446 0.062-0.631-0.154-0.43-0.384-0.861-0.615-1.352-0.2 0.138-0.323 0.277-0.431 0.277h-0.015c-0.83-0.047-1.814 0.138-2.428-0.246-0.539-0.323-1.077-0.539-1.615-0.754-0.015 0.016-0.03 0.031-0.046 0.062-0.061 0.046-0.123 0.108-0.169 0.2-0.046 0.077-0.077 0.138-0.077 0.169-0.015 0.031-0.015 0.031 0 0.046 0 0.03 0 0.077-0.015 0.138 0 0.061-0.031 0.139-0.092 0.246-0.046 0.092-0.077 0.169-0.077 0.185 0 0.03 0 0.03 0.031 0.061 0.046 0.046 0.184 0.123 0.323 0.338 0.046 0.092 0.092 0.139 0.122 0.169 0.031 0.016 0.047 0.031 0.093 0.046 0.03 0.016 0.077 0.062 0.107 0.123 0.016 0.062 0.046 0.139 0.077 0.262s0.062 0.184 0.077 0.215c0.031 0.015 0.046 0.031 0.077 0.046s0.092 0.031 0.123 0.092c0.015 0.062 0.031 0.139 0.031 0.277 0 0.107 0 0.215 0.015 0.277 0 0.046 0.016 0.061 0.016 0.092v0.077l-0.016 0.015-0.015 0.031-0.047 0.015h-0.03l-0.031-0.015h-0.015s0-0.015-0.016-0.015c-0.015-0.031-0.015-0.047-0.046-0.062-0.031-0.062-0.092-0.154-0.184-0.277-0.093-0.123-0.154-0.2-0.2-0.215-0.046-0.03-0.046-0.03-0.062-0.015-0.03 0.015-0.061 0.046-0.107 0.107-0.031 0.046-0.077 0.123-0.139 0.185-0.046 0.061-0.061 0.092-0.061 0.123-0.015 0.015 0 0.03-0.031 0.076 0 0.016-0.015 0.047-0.046 0.062-0.031 0.016-0.046 0.016-0.077 0.016-0.046 0.015-0.107 0.015-0.215 0-0.215-0.016-0.384 0-0.538 0.045-0.138 0.062-0.246 0.154-0.307 0.354-0.077 0.2-0.077 0.323-0.092 0.431 0 0.045-0.016 0.107-0.062 0.153-0.031 0.046-0.092 0.061-0.169 0.077-0.139 0.015-0.307 0.015-0.476 0.031-0.169 0.015-0.323 0.061-0.385 0.123-0.03 0.046-0.03 0.046-0.03 0.077 0 0.015 0 0.045 0.03 0.107 0.031 0.108 0.093 0.308 0.062 0.615-0.016 0.154-0.031 0.261-0.077 0.323-0.031 0.077-0.123 0.107-0.185 0.122-0.107 0-0.215-0.015-0.445 0.139-0.123 0.077-0.2 0.123-0.292 0.138-0.031 0-0.077-0.03-0.108-0.061s-0.046-0.046-0.046-0.077c-0.046-0.123-0.031-0.23-0.185-0.307-0.092-0.031-0.138-0.062-0.169-0.077-0.015 0.015-0.015 0.015-0.03 0.061-0.031 0.062-0.077 0.139-0.154 0.246-0.062 0.092-0.108 0.139-0.123 0.169 0 0.016 0.015 0.016 0.031 0.031 0.046 0.031 0.107 0.077 0.153 0.154 0.046 0.061 0.077 0.077 0.108 0.092 0.015 0.015 0.046 0.031 0.077 0.046s0.046 0.031 0.062 0.062c0.015 0.03 0.015 0.061 0.015 0.076-0.015 0.062-0.031 0.123-0.077 0.216-0.031 0.107-0.077 0.184-0.139 0.23-0.03 0.015-0.076 0.031-0.107 0.031s-0.062-0.016-0.077-0.016c-0.061-0.015-0.108-0.046-0.138-0.076-0.046-0.031-0.077-0.047-0.108-0.047-0.108-0.03-0.261-0.076-0.431-0.153-0.184-0.062-0.383-0.139-0.583-0.215-0.046-0.031-0.093-0.046-0.124-0.062-0.03-0.015-0.061-0.046-0.076-0.092s0-0.092 0.015-0.123l0.061-0.061c0.093-0.108 0.247-0.277 0.354-0.615 0.092-0.308 0.154-0.416 0.185-0.508-0.154 0.047-0.338 0.016-0.461-0.076-0.139-0.093-0.246-0.231-0.308-0.369-0.062-0.154 0-0.262 0-0.339 0-0.045-0.015-0.061-0.031-0.107-0.031-0.031-0.061-0.092-0.154-0.154-0.076-0.061-0.138-0.077-0.169-0.077-0.045 0-0.076 0.016-0.107 0.046-0.031 0.016-0.061 0.031-0.092 0.062-0.016 0-0.016 0.015-0.016 0.015h-0.092s-0.03-0.031-0.046-0.031c0 0 0-0.015-0.015-0.015v-0.046c-0.016-0.046-0.077-0.153-0.185-0.277-0.107-0.138-0.261-0.276-0.476-0.43-0.231-0.153-0.323-0.2-0.339-0.215-0.015 0.015-0.03 0.015-0.076 0.015s-0.169 0.047-0.262 0.092c-0.107 0.047-0.184 0.093-0.184 0.093l-0.015-0.046c-0.262 0.63-0.584 1.229-0.999 1.721-0.892 1.091-1.845 2.183-3.198 2.813-0.338 0.138-0.553 0.492-0.83 0.753 0.369 0.046 0.753 0.139 1.122 0.154 0.646 0.015 0.907 0.23 0.815 0.861-0.031 0.292-0.2 0.599-0.384 0.83-0.369 0.461-0.8 0.876-1.276 1.383h0.169c0.062-0.016 0.108-0.016 0.169-0.016 0.092 0 0.169 0 0.246-0.015 0.138-0.031 0.261-0.046 0.4-0.061 0.369 0 0.691 0.123 0.784 0.507 0.061 0.23-0.431 0.584-0.661 0.892-0.446 0.599-0.923 1.198-1.322 1.813 0.092 0.092 0.169 0.2 0.261 0.293 0.246 0.245 0.492 0.476 0.738 0.722 0.169 0.138 0.308 0.292 0.476 0.43 0.308 0.277 0.615 0.523 0.938 0.753 0.123 0.108 0.23 0.2 0.369 0.292 0.446 0.323 0.907 0.631 1.383 0.907 0.108 0.077 0.231 0.139 0.354 0.2 0.369 0.215 0.738 0.4 1.106 0.584 0.185 0.092 0.369 0.169 0.569 0.246 0.308 0.138 0.631 0.277 0.953 0.4 0.216 0.076 0.431 0.138 0.646 0.215 0.323 0.092 0.63 0.184 0.953 0.276 0.215 0.062 0.446 0.108 0.676 0.154 0.323 0.077 0.63 0.138 0.953 0.185 0.123 0.015 0.231 0.046 0.338 0.046 0.031-0.062 0.031-0.138 0.031-0.215 0-0.308 0.461-0.646-0.046-0.923-0.507-0.584-0.139-0.691 0.63-0.614h0.016c0.214 0 0.461-0.4 0.691-0.569 0.123-0.092 0.292-0.2 0.431-0.2 0.015 0 0.03 0 0.046 0.015 0.184 0.062 0.353 0.077 0.507 0.077 0.522-0.015 0.861-0.399 1.214-0.876 0.154-0.215 0.338-0.323 0.523-0.323 0.246 0 0.476 0.169 0.63 0.492 0.292 0.692 0.553 1.015 0.953 1.015 0.307-0.016 0.692-0.216 1.23-0.6-0.277-0.154-0.538-0.276-0.738-0.461-0.554-0.461-0.538-0.692 0-1.168 0.892-0.83 0.892-0.83 0.307-1.937-0.138-0.261-0.292-0.507-0.43-0.753-0.308-0.584-0.4-1.199 0.015-1.722 0.83-1.076 1.645-2.151 2.583-3.135 0.783-0.845 0.814-1.137 0.23-2.137" fill="#fff"/></g><g transform="translate(138.88 116.56)"><path d="m0 0c-0.322-0.188-2.584-0.245-2.932-0.383-0.157-0.069-0.371-0.081-0.46-0.195-0.301-0.372-0.582-0.766-0.819-1.187-0.137-0.241-0.206-0.536 0.245-0.635 0.345-0.073 0.693-0.215 0.98-0.406 0.804-0.54 0.892-1.535 0.127-2.152-0.724-0.588-1.069-1.186-0.739-2.162 0.13-0.39-0.05-0.934-0.222-1.359-0.235-0.568-0.576-1.094-0.868-1.605 0.203-0.024 0.406-0.052 0.61-0.067 0.182-0.012 0.37-0.072 0.558-0.14 0.106-0.012 0.207-0.024 0.312-0.036-3e-3 -0.024-5e-3 -0.049-7e-3 -0.073 0.091-0.031 0.182-0.059 0.273-0.08 0.874 0.438 0.639 0.426 1.235 0.83 0.221-1.179-0.479-2.208 1.733-1.152 2.554 0.704 2.592 1.262 3.162 0.792 0.394-0.303 0.341 0.019 1.382 0.173 0.513 1.565 1.283 2.656 1.891 3.088 0.215 0.781 0.173 1.249 0 3.261 0.2 1.634 0.28 2.637 0.091 3.766-0.394-0.036-1.022-0.324-1.458-0.317-0.267 4e-3 -1.225 0.663-1.504 0.796-0.329 0.157-0.505 0.199-0.827 0.062-0.619-0.26-1.056-0.762-1.225-0.877-0.436-0.291-1.082 0.322-1.538 0.058" fill="#fff"/></g><g transform="translate(120.99 99.681)"><path d="m0 0c0.061-0.111 0.104-0.232 0.14-0.359 0.068-0.179 0.135-0.354 0.202-0.528 0.078-0.13 0.187-0.251 0.355-0.353 0.399-0.242 1.574-0.341 1.574-0.341s-1.026 0.639-1.739 1.251c-0.354 0.304-0.533 0.444-0.614 0.537 0.024-0.059 0.054-0.136 0.082-0.207" fill="#fff"/></g><g transform="translate(145.35 117.24)"><path d="m0 0c-0.369-0.123-0.753-0.185-1.076-0.308-0.338-0.107-0.492 0.047-0.784 0.201-0.323 0.153-0.384 0.322-0.983 0.614-0.062 0.062-0.123 0.093-0.17 0.093h-0.015c-0.492 0.046-0.861 0-1.26-0.308-0.108-0.092-0.262-0.23-0.415-0.369-0.016-0.03-0.047-0.046-0.062-0.077-0.061-0.061-0.123-0.107-0.199-0.2-0.324-0.384-0.815-0.045-1.107 0.2-0.969-0.23-1.399-0.384-1.922-0.461-0.63-0.092-0.661-0.199-1.214-0.184-0.138 0.015-0.753-0.093-0.83-0.216-0.415-0.599-0.784-1.229-1.184-1.875l-0.261 0.015c-0.031 0-0.061 0.016-0.092 0.016-0.8 0.015-0.922-0.154-0.661-0.984 0.108-0.353 0.323-0.676 0.461-1.03 0.292-0.66 0.092-1.029-0.568-1.229-0.6-0.185-1.184-0.415-1.799-0.569-0.676-0.169-1.368-0.43-2.06-0.415-0.353 0.016-0.707 0.092-1.06 0.292-0.461 0.261-0.938 0.354-1.429 0.369-0.324 0-0.662-0.031-1-0.061h-0.046c-0.23 0-0.492 0.245-0.753 0.368-0.169 0.093-0.385 0.292-0.538 0.292-0.031 0-0.046 0-0.061-0.015-0.984-0.277-2.03-0.338-2.906-1.045-0.553-0.446-1.306-0.661-1.998-0.907-0.553-0.215-1.137-0.369-1.706-0.492-0.446-0.108-0.907-0.199-1.352-0.23-0.462-0.016-0.784-0.062-0.8-0.646-0.03-0.615-0.707-1.26-1.291-1.245-0.092 0-0.185 0.015-0.261 0.062-0.246 0.107-0.461 0.153-0.692 0.153-0.599 0.016-1.153-0.276-1.752-0.384-0.169-0.015-0.384-0.169-0.462-0.323-0.476-1.122-1.337-1.629-2.474-1.952-0.676-0.185-1.353-0.261-2.013-0.231-0.538 0.016-1.092 0.092-1.645 0.215-0.093 0.016-0.169 0.185-0.231 0.292-0.261 0.431-0.476 0.923-0.799 1.292-0.953 1.091-0.707 2.428-0.861 3.689-0.046 0.476 0.246 0.984 0.369 1.491 0.6-0.016 1.061 0.307 0.922 0.83-0.246 0.907 0.277 1.137 0.892 1.46 0.2 0.092 0.384 0.185 0.538 0.169 0.169 0 0.238 0.344 0.909 0.329-0.031 0.186-0.175 0.099-0.387 0.117-0.16 0.013-0.245-0.154-0.445-0.138-0.154 0-0.308-0.046-0.477-0.139-0.199-0.108-0.384-0.276-0.599-0.322-0.707-0.169-0.892-0.6-0.707-1.276 0.123-0.4-0.062-0.615-0.523-0.754 0.153 1.707-0.554 2.813-2.121 3.444-0.63 0.261-1.015 0.83-1.23 1.583-0.107 0.353-0.23 0.707-0.369 1.06 0.016-0.015 0.031-0.031 0.062-0.031 0.107-0.045 0.23-0.107 0.338-0.107h0.046c0.015 0 0.061-0.016 0.092 0 0.077 0.031 0.139 0.077 0.354 0.231 0.23 0.153 0.415 0.307 0.538 0.445 0.092 0.123 0.138 0.216 0.169 0.308 0.015-0.016 0.015-0.016 0.046-0.046 0.046-0.031 0.107-0.062 0.2-0.062 0.077 0 0.169 0.031 0.261 0.108 0.108 0.077 0.169 0.153 0.215 0.215 0.031 0.061 0.047 0.138 0.047 0.184-0.016 0.123-0.047 0.185-0.016 0.277 0.046 0.108 0.138 0.215 0.246 0.292 0.092 0.062 0.215 0.092 0.323 0.062 0.061-0.031 0.092-0.047 0.138-0.062h0.015l0.047 0.015 0.03 0.031 0.015 0.046v0.046c0 0.016 0 0.016-0.015 0.031-0.03 0.077-0.107 0.231-0.215 0.6-0.107 0.368-0.292 0.569-0.384 0.676-0.015 0.015-0.015 0.015-0.015 0.031 0.015 0.015 0.03 0.015 0.076 0.046 0.2 0.077 0.4 0.153 0.569 0.215 0.185 0.077 0.338 0.123 0.415 0.138 0.062 0.016 0.123 0.047 0.154 0.062 0.046 0.03 0.092 0.061 0.107 0.077h0.046c0.016-0.016 0.047-0.062 0.077-0.154 0.046-0.092 0.062-0.138 0.062-0.154-0.016-0.015-0.047-0.015-0.077-0.031-0.046-0.03-0.093-0.076-0.154-0.153-0.03-0.062-0.061-0.093-0.092-0.108-0.031-0.031-0.061-0.031-0.108-0.061-0.015-0.031-0.031-0.062-0.031-0.093 0-0.045 0.016-0.061 0.031-0.092 0.016-0.046 0.077-0.107 0.139-0.2 0.077-0.092 0.122-0.168 0.153-0.215 0.016-0.061 0.016-0.092 0.062-0.123 0.015-0.031 0.061-0.046 0.092-0.046s0.046 0 0.077 0.015c0.046 0.016 0.092 0.047 0.184 0.093 0.216 0.108 0.246 0.322 0.262 0.4l0.015 0.015c0.015 0 0.062-0.015 0.185-0.108 0.261-0.169 0.445-0.154 0.522-0.169 0.047 0 0.031 0.015 0.047-0.015 0.015-0.031 0.045-0.123 0.061-0.262 0.03-0.292-0.031-0.445-0.061-0.553-0.016-0.061-0.032-0.108-0.032-0.169s0.032-0.123 0.093-0.184c0.107-0.108 0.292-0.154 0.476-0.17 0.185-0.015 0.369-0.015 0.477-0.031 0.046-0.015 0.061-0.015 0.061-0.03 0 0 0.015-0.015 0.015-0.046 0.016-0.092 0.016-0.246 0.093-0.477 0.077-0.23 0.246-0.368 0.415-0.446 0.184-0.076 0.4-0.076 0.615-0.061 0.092 0.016 0.153 0.016 0.184 0.016v-0.046c0.016-0.062 0.046-0.108 0.108-0.185 0.046-0.061 0.092-0.123 0.138-0.169 0.046-0.061 0.077-0.123 0.138-0.169 0.077-0.031 0.169-0.031 0.246 0.015 0.077 0.062 0.154 0.139 0.246 0.277 0.031 0.046 0.046 0.061 0.061 0.092v-0.138c0-0.123-0.015-0.185-0.015-0.2-0.015-0.016-0.015 0-0.046-0.016-0.015-0.015-0.077-0.045-0.123-0.092-0.046-0.061-0.092-0.154-0.123-0.276-0.03-0.123-0.046-0.2-0.061-0.246-0.031-0.031-0.031-0.031-0.047-0.031-0.015-0.015-0.061-0.031-0.107-0.077-0.046-0.03-0.107-0.108-0.169-0.2-0.108-0.184-0.2-0.23-0.292-0.307-0.031-0.046-0.077-0.107-0.077-0.185 0.016-0.076 0.046-0.153 0.092-0.261 0.062-0.108 0.077-0.169 0.093-0.2v-0.077c-0.016-0.03-0.016-0.076 0-0.123 0.015-0.061 0.046-0.122 0.092-0.215 0.061-0.092 0.138-0.169 0.2-0.23-0.277-0.092-0.538-0.2-0.8-0.293-0.138-0.045-0.487-0.145-0.443-0.439 0.493 0.215 0.843 0.255 1.15 0.394 0.062 0.015 0.108 0.045 0.17 0.061 0.046 0.015 0.091 0.031 0.138 0.046 0.015 0 0.031 0.016 0.046 0.031 0 0 0.015 0 0.015 0.015 0.015 0 0.015 0 0.015 0.016 0.431 0.2 0.846 0.384 1.276 0.584 0.216 0.092 0.446 0.184 0.692 0.215 0.369 0.061 0.753 0.092 1.137 0.092h0.462c0.184 0 0.369-0.031 0.43-0.123 0.707-0.953 1.798-1.137 2.782-1.414 0.661-0.185 0.784-0.507 0.83-1.061 0.093-1.122 0.231-2.228 0.369-3.35-0.021-0.296-4e-3 -0.544 0.296-0.694-0.061 1.46-0.219 3.061-0.403 4.46-0.062 0.46-0.415 0.737-0.907 0.891-0.861 0.246-1.691 0.615-2.506 0.922 0.262 0.569 0.431 0.969 0.646 1.353 0.307 0.507 0.292 0.892-0.123 1.383-0.384 0.461-0.6 1.092-0.354 1.799 0.108-0.031 0.215-0.046 0.323-0.046 0.569-0.016 0.891 0.399 1.153 0.891 0.153 0.277 0.292 0.569 0.477 0.815 0.445 0.568 0.322 1.045-0.154 1.552-0.861 0.968-1.691 1.967-2.521 2.967-0.815 0.983-0.83 1.368-0.216 2.459 0.216 0.353 0.385 0.723 0.6 1.076 0.062 0.107 0.215 0.276 0.292 0.276 0.507-0.169 0.999-0.399 1.584-0.645-0.262-0.261-0.446-0.384-0.554-0.553-0.123-0.216-0.338-0.569-0.246-0.692 0.138-0.231 0.461-0.369 0.738-0.476 0.062-0.016 0.138-0.031 0.2-0.031 0.138 0 0.277 0.031 0.384 0.077 0.369 0.184 0.722 0.23 1.091 0.215 0.523 0 1.045-0.154 1.568-0.215 0.815-0.108 1.614-0.262 2.428-0.277 0.677-0.015 1.369 0.046 2.06 0.292 0.108 0.046 0.2 0.077 0.308 0.092 2.582-3.889 3.704-8.823 2.797-13.879 0.108 0.599 0.246 1.198 0.4 1.767 0.061 0.2 0.123 0.384 0.184 0.569 0.123 0.384 0.246 0.753 0.385 1.122 0.076 0.215 0.169 0.43 0.261 0.646 0.138 0.322 0.277 0.645 0.43 0.968 0.108 0.215 0.215 0.43 0.339 0.645 0.153 0.292 0.322 0.584 0.491 0.876 0.138 0.216 0.261 0.415 0.4 0.616 0.184 0.276 0.369 0.553 0.568 0.814 0.139 0.2 0.277 0.384 0.431 0.584 0.215 0.261 0.43 0.507 0.646 0.753 0.153 0.169 0.307 0.354 0.461 0.523 0.246 0.246 0.507 0.492 0.753 0.722 0.154 0.154 0.307 0.292 0.461 0.431 0.308 0.276 0.63 0.522 0.953 0.768 0.123 0.093 0.231 0.185 0.354 0.277 0.445 0.323 0.906 0.63 1.383 0.922l0.369 0.185c0.354 0.215 0.722 0.415 1.091 0.584 0.184 0.092 0.385 0.169 0.569 0.246 0.322 0.138 0.645 0.276 0.968 0.399 0.215 0.077 0.431 0.139 0.646 0.215 0.307 0.093 0.63 0.2 0.937 0.277 0.231 0.062 0.461 0.108 0.692 0.154 0.307 0.077 0.63 0.138 0.953 0.184 0.23 0.047 0.461 0.077 0.707 0.108 0.323 0.031 0.646 0.061 0.984 0.077 0.23 0.015 0.461 0.031 0.707 0.031 0.092 0.015 0.2 0.015 0.308 0.015 0.276 0 0.537-0.015 0.799-0.031 0.184 0 0.369-0.015 0.537-0.015 0.093-0.016 0.2-0.016 0.292-0.031-0.384-0.246-0.153-0.738-0.23-1.214-0.077-0.415-0.277-1.276-0.215-1.691 0.138-0.922-0.446-1.168-0.307-1.86-0.385-0.415-0.416-1.061-0.569-1.445-0.139-0.307-0.554-0.738-0.969-0.876-0.184-0.061-0.384-0.876-0.445-1.106-0.308-0.477 0.015-0.385 0.353-0.324l0.016 0.016c0.046-0.031 0.076-0.046 0.107-0.031 0.077 0.046 0.154 0.077 0.231 0.108 1.736 0.03 1.798-0.83 2.521-2.137 0.123-0.369 0.199-0.707 0.276-1.045" fill="#fff"/></g><g transform="translate(99.539 117.23)"><path d="m0 0c-0.54 0.942-0.839 1.957-1.776 2.737-0.697 0.582-1.264 1.337-2.098 1.788-0.455 0.245-0.88 0.559-1.313 0.834-0.16 0.108-0.314 0.207-0.475 0.307-0.022-0.241-0.087-0.49-0.048-0.728 0.022-0.161 0.232-0.279 0.278-0.448 0.055-0.229 0.027-0.49 0.035-0.731-0.038 4e-3 -0.077 4e-3 -0.119 4e-3 -0.387 0.092-0.716 0.112-1.11 0.295-0.207 4e-3 -0.271-0.199-0.432-0.739-0.066-0.253-0.108-0.516-0.112-0.777-0.022-0.379-0.034-0.697-0.49-0.876-0.202-0.081-0.378-0.51-0.371-0.77 0.02-0.336 0.785-0.364 0.942-0.677 0.567-1.087 0.678-1.635-0.452-2.14 0.743-1.099 1.582-1.42 2.431-2.266 0.418-0.321 0.46-0.765 0.727-1.014 0.624-0.536 0.62-0.383 0.681-0.012 0.291 0.972-0.129 1.095 0.532 2.064 0.564 0.795 1.026 1.657 1.528 2.499 0.016-4e-3 0.03-4e-3 0.042-4e-3 0.05 0 0.096 0 0.142-3e-3h0.045c0.1-0.211 0.173-0.445 0.307-0.625 0.126-0.168 0.325-0.383 0.49-0.386h4e-3c0.745-4e-3 1.121 0.627 0.811 1.313-0.062 0.118-0.13 0.236-0.199 0.355" fill="#fff"/></g><g transform="translate(92.597 161.43)"><path d="m0 0c-2.285-0.854-4.528-1.803-6.706-2.883-2.197-1.044-4.298-2.269-6.338-3.593l-1.52-1.015-1.466-1.095-0.742-0.539-0.705-0.589c-0.47-0.391-0.949-0.778-1.436-1.161 0.407 0.464 0.816 0.923 1.233 1.378l0.632 0.682 0.677 0.635 1.378 1.248c0.483 0.387 0.977 0.762 1.467 1.141 0.248 0.187 0.49 0.382 0.742 0.566l0.773 0.513c0.521 0.337 1.03 0.696 1.562 1.014 1.076 0.624 2.151 1.244 3.269 1.781 2.235 1.082 4.543 2.009 6.917 2.709 2.373 0.7 4.803 1.232 7.264 1.432-2.38-0.636-4.708-1.386-7.001-2.224m68.366-47.646c1.467 27.122-16.218 51.515-42.209 56.882l0.911 4.931c0.046 0.249-0.114 0.485-0.363 0.532l-1.436 0.264c-0.026 4e-3 -0.057 8e-3 -0.084 8e-3 -0.214 0-0.406-0.154-0.444-0.371l-0.911-4.935c-2.721 0.433-5.427 0.655-8.109 0.655-23.323 0-44.447-15.931-51.755-39.318 0.192 0.463 0.403 0.914 0.628 1.355 0.073 0.144 0.154 0.281 0.23 0.422 0.159 0.293 0.319 0.584 0.491 0.867 0.1 0.162 0.206 0.319 0.309 0.478 0.165 0.252 0.331 0.501 0.506 0.743 0.116 0.16 0.234 0.316 0.354 0.472 0.179 0.232 0.362 0.458 0.55 0.681 0.126 0.149 0.254 0.296 0.384 0.441 0.198 0.219 0.401 0.431 0.608 0.64 0.132 0.133 0.263 0.268 0.398 0.397 0.227 0.215 0.463 0.42 0.7 0.624 0.125 0.107 0.246 0.219 0.374 0.323 0.31 0.252 0.63 0.492 0.955 0.722 0.062 0.044 0.12 0.093 0.182 0.136 0.389 0.269 0.789 0.521 1.197 0.759 0.122 0.071 0.25 0.133 0.374 0.202 0.29 0.16 0.581 0.317 0.879 0.46 0.161 0.078 0.326 0.147 0.49 0.22 0.269 0.119 0.538 0.236 0.813 0.342 0.178 0.069 0.358 0.132 0.538 0.195 0.269 0.094 0.54 0.183 0.814 0.264 0.186 0.054 0.371 0.107 0.559 0.155 0.278 0.073 0.558 0.136 0.841 0.194 0.186 0.038 0.371 0.078 0.558 0.111 0.299 0.051 0.601 0.09 0.903 0.126 0.174 0.02 0.346 0.046 0.521 0.062 0.363 0.031 0.73 0.045 1.098 0.054 0.115 3e-3 0.229 0.013 0.345 0.014 0.016 0 0.031 1e-3 0.046 1e-3 0.322 0 0.646-0.024 0.97-0.042 0.171-0.01 0.341-8e-3 0.513-0.023 0.511-0.044 1.025-0.111 1.539-0.203 9.699-1.734 16.068-11.353 14.243-21.485 0.108 0.603 0.247 1.191 0.407 1.769 0.054 0.193 0.122 0.377 0.181 0.567 0.118 0.381 0.238 0.759 0.377 1.127 0.082 0.217 0.177 0.426 0.266 0.639 0.138 0.328 0.279 0.654 0.433 0.971 0.106 0.218 0.22 0.429 0.334 0.642 0.16 0.299 0.325 0.594 0.5 0.882 0.126 0.209 0.256 0.413 0.39 0.616 0.182 0.277 0.372 0.547 0.568 0.813 0.143 0.195 0.287 0.388 0.438 0.576 0.207 0.26 0.424 0.511 0.644 0.759 0.155 0.174 0.307 0.35 0.468 0.518 0.24 0.251 0.491 0.488 0.743 0.725 0.157 0.145 0.309 0.297 0.469 0.438 0.303 0.264 0.619 0.511 0.937 0.754 0.123 0.094 0.24 0.197 0.366 0.288 0.448 0.325 0.909 0.629 1.382 0.911 0.12 0.071 0.246 0.13 0.367 0.198 0.361 0.204 0.725 0.403 1.098 0.581 0.186 0.088 0.377 0.163 0.565 0.245 0.319 0.139 0.638 0.275 0.964 0.395 0.213 0.078 0.429 0.144 0.644 0.214 0.313 0.101 0.626 0.198 0.945 0.281 0.226 0.059 0.455 0.111 0.684 0.161 0.317 0.069 0.635 0.131 0.956 0.182 0.234 0.038 0.468 0.071 0.704 0.099 0.326 0.039 0.654 0.065 0.984 0.085 0.235 0.014 0.469 0.028 0.705 0.033 0.105 2e-3 0.209 0.014 0.315 0.014 0.267 0 0.535-0.023 0.803-0.035 0.179-9e-3 0.358-0.01 0.538-0.024 0.559-0.044 1.119-0.109 1.681-0.209 9.701-1.734 16.07-11.353 14.244-21.485 0.108 0.603 0.247 1.191 0.407 1.769 0.054 0.192 0.121 0.377 0.18 0.566 0.119 0.381 0.239 0.76 0.378 1.128 0.082 0.217 0.177 0.426 0.266 0.638 0.138 0.328 0.278 0.655 0.434 0.973 0.106 0.217 0.22 0.428 0.333 0.641 0.16 0.299 0.325 0.594 0.499 0.882 0.127 0.209 0.257 0.413 0.391 0.615 0.183 0.278 0.373 0.549 0.569 0.816 0.143 0.194 0.286 0.386 0.436 0.573 0.209 0.261 0.426 0.513 0.648 0.762 0.153 0.173 0.305 0.348 0.464 0.515 0.242 0.253 0.495 0.492 0.749 0.73 0.155 0.144 0.305 0.294 0.464 0.433 0.304 0.266 0.621 0.514 0.942 0.758 0.121 0.093 0.237 0.195 0.361 0.285 0.448 0.325 0.909 0.629 1.383 0.912 0.118 0.069 0.242 0.127 0.361 0.194 0.363 0.205 0.728 0.405 1.104 0.584 0.184 0.088 0.375 0.162 0.563 0.244 0.32 0.139 0.64 0.276 0.967 0.397 0.211 0.077 0.425 0.143 0.639 0.211 0.315 0.102 0.63 0.2 0.95 0.284 0.225 0.059 0.452 0.109 0.68 0.159 0.318 0.07 0.638 0.132 0.96 0.184 0.233 0.037 0.466 0.07 0.7 0.098 0.328 0.039 0.657 0.065 0.988 0.085 0.234 0.015 0.467 0.029 0.702 0.033 0.107 2e-3 0.211 0.015 0.318 0.015 0.266 0 0.535-0.023 0.803-0.035 0.179-9e-3 0.357-0.01 0.536-0.024 0.558-0.044 1.119-0.109 1.681-0.209 8.353-1.494 14.228-8.823 14.534-17.301" fill="#fff"/></g></g><text transform="matrix(1 0 0 -1 57.815 37.522)" fill="#ffffff" font-family="'Montserrat Black'" font-size="29.818px" font-weight="900"><tspan x="0 23.854561 44.995663 72.39859" y="0">СТАР</tspan></text><text transform="matrix(1 0 0 -1 222.64 114.59)" fill="#ffffff" font-family="'Playfair Display'" font-size="24.884px"><tspan x="0 19.085951 33.891872 49.643379 56.08831 73.208435 91.89624 109.26521 124.66834 141.78847 157.4902 177.07384 192.82535 199.27026 218.35622 234.28192 240.72685 258.09583 273.49893 290.61908 307.98804 324.33676 340.26245 357.63141 376.71738 396.30099" y="0">ПРВ КОЛЕКТИВ НА СЕКСУАЛНИ </tspan><tspan x="0 14.805921 30.731617 45.81126 64.499069 80.200813 99.286758 118.87039 138.15541 157.73904 164.18398 183.26993 199.19562 205.64055 220.7202 236.64589 254.01485 271.13498 287.06067 306.14661 324.83444" y="29.86068">РАБОТНИЦИ НА БАЛКАНОТ</tspan></text></g></svg>
