<?xml version="1.0" encoding="UTF-8" standalone="no"?>
<svg
   xmlns:dc="http://purl.org/dc/elements/1.1/"
   xmlns:cc="http://creativecommons.org/ns#"
   xmlns:rdf="http://www.w3.org/1999/02/22-rdf-syntax-ns#"
   xmlns:svg="http://www.w3.org/2000/svg"
   xmlns="http://www.w3.org/2000/svg"
   xmlns:sodipodi="http://sodipodi.sourceforge.net/DTD/sodipodi-0.dtd"
   xmlns:inkscape="http://www.inkscape.org/namespaces/inkscape"
   inkscape:version="1.0 (b51213c273, 2020-08-10)"
   sodipodi:docname="insta.svg"
   id="svg4"
   version="1.1"
   viewBox="0 0 24 24"
   height="24"
   width="24">
  <metadata
     id="metadata10">
    <rdf:RDF>
      <cc:Work
         rdf:about="">
        <dc:format>image/svg+xml</dc:format>
        <dc:type
           rdf:resource="http://purl.org/dc/dcmitype/StillImage" />
        <dc:title></dc:title>
      </cc:Work>
    </rdf:RDF>
  </metadata>
  <defs
     id="defs8" />
  <sodipodi:namedview
     inkscape:current-layer="svg4"
     inkscape:window-maximized="1"
     inkscape:window-y="37"
     inkscape:window-x="0"
     inkscape:cy="10.268143"
     inkscape:cx="16.915977"
     inkscape:zoom="28.181296"
     showgrid="false"
     id="namedview6"
     inkscape:window-height="1011"
     inkscape:window-width="1920"
     inkscape:pageshadow="2"
     inkscape:pageopacity="0"
     guidetolerance="10"
     gridtolerance="10"
     objecttolerance="10"
     borderopacity="1"
     bordercolor="#666666"
     pagecolor="#ffffff"
     inkscape:document-rotation="0" />
  <path
     style="fill:#ffffff;stroke-width:0.0472818"
     d="M 7.7573873,23.987532 C 6.5986014,23.943335 5.8050278,23.850547 5.134377,23.680839 2.760775,23.080185 1.1164006,21.424487 0.5174135,19.032085 c -0.27854219,-1.11253 -0.355095,-2.609174 -0.355095,-6.942338 0,-4.333165 0.0765461,-5.8298086 0.355095,-6.9423366 0.5998558,-2.3958793 2.2399518,-4.0462865 4.6204204,-4.64947441 1.1012323,-0.2790384 2.6288555,-0.3583451 6.9026231,-0.3583451 4.27124,0 5.859056,0.082967 6.927285,0.361927 2.378335,0.62110431 3.998013,2.25845451 4.595754,4.64589251 0.276901,1.1059651 0.355771,2.6449941 0.355771,6.9423366 0,5.029797 -0.105346,6.419123 -0.583685,7.697583 -0.623983,1.667722 -1.849246,2.940688 -3.451761,3.586146 -1.011451,0.407386 -1.858352,0.545737 -3.789283,0.619017 -1.443325,0.05479 -6.8552718,0.05156 -8.3371507,-0.005 z m 7.5593307,-2.128236 c 2.469087,-0.06127 3.114756,-0.156745 4.012219,-0.593297 1.306452,-0.635484 2.072628,-1.797109 2.305588,-3.495569 0.122047,-0.889854 0.187796,-5.30475 0.123282,-8.2771248 C 21.685528,6.1636402 21.627903,5.7183099 21.139567,4.7153765 20.736218,3.8869797 20.194257,3.3417632 19.370806,2.9359926 18.37283,2.4442217 17.928553,2.3859231 14.621405,2.3127653 c -2.012061,-0.04451 -3.149823,-0.04451 -5.1618844,0 C 6.1523694,2.3859321 5.708095,2.4442171 4.710119,2.9359926 3.8866681,3.3417632 3.3447066,3.8869797 2.9413585,4.7153765 c -0.488891,1.0040851 -0.546772,1.4507636 -0.619127,4.7779287 -0.043862,2.0167688 -0.043862,3.1761158 0,5.1928828 0.072348,3.327166 0.1302404,3.773846 0.619127,4.777929 0.4034131,0.828528 0.9455542,1.373871 1.7687605,1.779201 0.5690827,0.280204 0.9949343,0.402911 1.7441965,0.502583 1.0271783,0.136645 5.5788905,0.194885 8.8624095,0.113386 z M 11.007926,18.133863 C 9.770141,17.916102 8.6521784,17.325716 7.746197,16.411397 6.8682743,15.525392 6.3622649,14.59956 6.071069,13.346472 c -0.125953,-0.541971 -0.125953,-1.97148 0,-2.513449 C 6.3622649,9.5799362 6.8682743,8.6541012 7.746197,7.7680992 8.4352008,7.0727531 9.1274462,6.6291388 10.013415,6.3151877 10.782741,6.0425742 11.084193,5.9957406 12.064028,5.9966078 12.887723,5.9973427 13,6.0078998 13.461288,6.12824 c 1.192766,0.3111123 2.018545,0.7825816 2.875016,1.6414646 1.174219,1.1775266 1.784894,2.6555644 1.784894,4.3200494 0,1.664483 -0.610675,3.142524 -1.784894,4.32005 -0.881839,0.884322 -1.826976,1.406428 -3.046625,1.682998 -0.472685,0.107199 -1.772925,0.130594 -2.281753,0.04107 z m 1.645355,-2.111195 c 0.43999,-0.07172 0.959634,-0.256257 1.367075,-0.48549 0.480629,-0.270408 1.178156,-0.972124 1.446949,-1.455639 0.704028,-1.266428 0.704028,-2.717154 0,-3.983582 C 15.198512,9.6144422 14.500985,8.9127232 14.020356,8.6423182 12.459318,7.7640547 10.600102,7.9892389 9.3210776,9.2114832 7.9896965,10.48376 7.7045877,12.446368 8.6136071,14.081539 c 0.2687928,0.483515 0.9663221,1.185231 1.4469499,1.455639 0.805509,0.453191 1.729451,0.626201 2.592724,0.48549 z M 18.024966,7.0957104 C 17.599261,6.9750304 17.253671,6.6726982 17.068599,6.259053 16.935776,5.9622014 16.936472,5.4588367 17.070046,5.1600972 17.405649,4.4098105 18.273345,4.0742393 18.979309,4.421709 c 0.308228,0.1517082 0.573843,0.4276213 0.710826,0.7383882 0.131992,0.2994214 0.131992,0.8029306 0,1.1023518 -0.283419,0.6429803 -1.025882,1.0145024 -1.665213,0.8332614 z"
     id="path24" />
</svg>
