<svg id="Layer_1" data-name="Layer 1" xmlns="http://www.w3.org/2000/svg" viewBox="0 0 404.6 360.05"><defs><style>.cls-1{fill:#d32027;}.cls-2{fill:none;stroke:#d32027;stroke-linecap:round;stroke-miterlimit:10;stroke-width:5px;}</style></defs><title>transparent_umbrella</title><path class="cls-1" d="M279.54,220.52,215.13,359.44a34.1,34.1,0,0,1-44.69,16.82c-17.42-7.72-24.84-28.8-16.83-46.09l1.42-3.06a2.43,2.43,0,0,1,3.22-1.18l.14.06a2.43,2.43,0,0,1,1.18,3.22l-1.71,3.68a29.1,29.1,0,0,0,14.95,38.95c14.54,6.22,31.4-.72,38.05-15.06l67.3-145.19A74.34,74.34,0,0,1,279.54,220.52Z" transform="translate(-85.94 -19.12)"/><line class="cls-2" x1="278.67" y1="6.89" x2="271.48" y2="22.15"/><path class="cls-2" d="M476.62,299.89a61.87,61.87,0,0,0-86.35-22.83,71.29,71.29,0,0,0-110.73-56.5v0l-1.38-8.93a71.26,71.26,0,0,0-109.73-43.93,61.81,61.81,0,0,0-77.25-49.32C142.47,30.49,257.35-3.39,357.42,41.28q3.12,1.39,6.21,2.88C463.84,92.47,511.64,203.86,476.62,299.89Z" transform="translate(-85.94 -19.12)"/><path class="cls-2" d="M254,48.79s-52.25-7.14-91.29,35.32" transform="translate(-85.94 -19.12)"/></svg>