<svg viewBox="0 0 155.43 162" height="162mm" width="587.452">
  <defs>
    <clipPath id="a">
      <path d="M0 218.118h670.588V0H0z"/>
    </clipPath>
  </defs>
  <g clip-path="url(#a)" transform="matrix(1.96342 0 0 -2.06033 -171.405 309.766)" fill="#fff">
    <path d="M133.1 110.91c-1.03-.313-2.07-.574-3.104-.857a2.429 2.429 0 00-.731-.092c-.51.015-1.003.168-1.508.317-.56.169-1.187.082-1.777.176-.405.062-.799.231-1.186.364-.145.058-.291.253-.394.257-.008 0-.016-.004-.023-.004-.751-.173-1.516-.318-2.228-.613-.761-.313-1.432-1.033-2.197-1.12-1.183-.127-2.189-.928-3.387-.897a2.348 2.348 0 00-.372.039h-.011c-.131.003-.418-.272-.425-.433-.076-.861-.865-1.512-1.73-1.492a1.698 1.698 0 00-.414.064c-.221.066-.451.1-.677.104-.865.023-1.68-.379-2.056-1.148-.658-1.363-2.013-1.264-3.138-1.658-.246-.084-.537-.065-.8-.095-.62-.066-.877-.521-.578-1.05.532-.956.436-1.431-.502-2.002-.512-.305-.704-.642-.59-1.251.158-.838-.363-1.577-1.178-1.78-.533-.138-.884-.314-.575-.973.207-.412.101-.78-.275-1.136-.364-.344-.582-1.107-.593-1.531a1.604 1.604 0 00-.07-.303 5.745 5.745 0 00-.166-.722c-.051-.345-.045-.699.148-.942.459-.575.972-.345 1.826-.514.589-.29.57-.826.921-1.205.116-.321.361-.628.786-1.244.122.276-.023.636.291.628.616-.139 1.5-.425 2.151-.54.272-.774.605-1.152.696-1.715-.984.111-1.665.123-2.649.352l-.206-.734s.608.194.915.13c.038-.514.004-.571.05-1.041.195.05.325.232.47.134.36-.854.284-1.119.843-.835.103-.245.221-1.643.221-1.643s.077-.06.157-.064c.115-.004.598 1.336 1.054 1.803.221-.226.783-1.217.964-1.294.401-.169 1.596.386 1.833.445.41.11.654.665 1.44.347.807-.321 1.289-.588 1.96-.103.297.349.451.724.776.624.436-.138.211-.291.631-.83.368.473.464.493.693.42 1.375-.497 1.061-.723 3.775-1.366v-.035c.032-.004.062-.008.094-.014a1.618 1.618 0 00-.114-.321c-.041-.206-.156-.333-.381-.422-.008-.005-.017-.007-.025-.011-.019-.007-.033-.016-.054-.023a1.714 1.714 0 00-.577-.13 50.62 50.62 0 00-.509-.082c.005-.166.004-.297.009-.421l.006-.047c.008-.12.022-.234.065-.366-1.209.073-1.526.582-2.255.854-1.327.502-2.235.375-3.375.808-.893.102-1.657.264-2.066.218-.298-.129-.572-.365-.831-.726-.051-.163-.111-.314-.402-.362-.085.024-.597-.035-.667-.035-.482.017-.52-.053-.746-.351-.479-.62-.686-1.014-1.168-1.795.146-.114.49-.391.85-.651.223-.176.146-.513.594-.796 1.313-.828 2.377-1.413 2.354-2.994-.199-.856-.663-.666-.344-1.535.179-.497.63-.635 1.002-.953-.138-.245-.448-.85-.307-.937.243-.126 1 .145 1.214-.184-.103.287-.375 1.247-.272 1.466.188.41.203.582 1.191.747.551.026.746-.089.773-.333-.023-.544.146-.606.559-.717.623-.164.78.02.862-.214.041-.135.057-.28.072-.436.015-.081.031-.18.049-.306.044-.33.197-.644.322-.959.048.018.115.06.203.098-.084.351-.241.692-.291.811.111.16.153.265.314.379.195.004.394-.126.65-.165.242.203.544.33.705.349.494-.016.75-.169.907-.376.034-.121.022-.274.024-.43.045-.219.101-.377.172-.482.16-.077.387-.118.62-.191.295-.125.413-.202.643-.232-.043.198-.261.439-.376.59-.245.347.119.558.016 1.323-.046.406-.192.475-.682 1.329-.326.382-.807 1.344-1.496 2.437-.344.472-.533 1.165-.601 1.715.417.046 1.068-.022 1.466-.114.463-.072.929-.23 1.764-.468.023-.09.03-.158.043-.234a.66.66 0 00.04-.343c.009-.229-.015-.351.013-.333.395.241.911.735 1.519.938-.054.153-.122.375-.172.49-.034.102-.141.325-.237.566l-.005-.02c-.021-.168-.041-.335-.065-.504-.02.006-.037.015-.057.02l-.007-.028c-.29-.019-.77.253-.915.38-.283.251-.49.45-.57 1.006-.02.237-.024.351-.016.815 0 0-.512.126-1.239.398.983.494 2.502 1.283 3.364 1.715.007-.017.017-.033.025-.049a.124.124 0 00.02.01c.009.004.026-.006.036-.004a.164.164 0 00.069.05c.052-.029.106-.051.159-.08.117-.044.241-.107.345-.157.04-.018.076-.048.113-.072.672-.312 1.317-.55 1.71-.869.29-.227.416-.67.647-1.095.064-.096.068-.157.291-.222.241.409-.227.988-.365 1.213-.252.51-.222 1.103-.125 1.75.061.398.133.525.195.838-.896.451-1.964.409-2.5.903-.474.402-.777.824-1.064.908-.352.038-.57-.319-.712-.249-.249.115-.367.785-.486.995-.268.485-.445.253-1.049.069-.119.007-.371.015-.448.114-.218.287-.375.509-.547.586-.463.196-.697.126-1.443.26-.506.135-.67.038-1.566.464-.012.072-.042.195-.05.267 1.053.486 1.6.617 3.048.996-.632.47-.602.516-1.161 1.136-.642.701-.987 1.091-.987 1.091.192.054.417.203.475.245 0 0 .478.405.861.801l.061-.04.01.009c.618-.41 1.318-.865 2.135-1.401-.327.589-2.339 2.568-3.052 3.349-.49.635-.585.926-.85 1.24-.325.383-.413.724-.807 1.033-.793.964-.95 1.245-.559 2.474.103.194-.042 1.083-.046 1.492.257.226.444.264.876.808.142.152.486.413.958.726.031-.018.046-.045.072-.066l.034.029c.022-.036.025-.066.044-.101a.634.634 0 00.136-.31c.013-.05.008-.094.013-.14a.338.338 0 000-.045.676.676 0 00-.029-.274c-.117-.758-.398-.826.406-1.155.353-.141 1.379-.467 2.035-.837.04-.015.081-.026.12-.043.006-.002.014 0 .022 0-.074.1.004.133.193.241.735.412 1.241.245 1.626.038.088-.057.155-.106.229-.157.035-.018.065-.047.099-.068.37-.261.593-.451.855-.663.514-.495.732-.728.771-.635-.028.295.038.589-.448.941-.219.15-.651.406-.763.487-.631.558-.811.65-.413 1.04.353.314.498.425.923.414.092-.004.528-.169.604-.207.563-.259.712-.301 1.167-.533.416-.172.866-.36 1.352-.564l.008-.002s-.264.257-.559.522c-.636.665-1.333.761-1.99.971-.425.058-.809.18-1.053.253-.406.142-.077.437-.115.762-.065.62-.287.348-.751.646-.294.181-.454.352-.133.639.157.135.838.498 1.045.49a6.73 6.73 0 01.446-.071l.051-.005c.155-.017.319-.026.498-.018.367.045.432.064.788.363.345.329.425.371.724.956.149.241.558.724.727.831.827.329 1.091-.409 1.94-.295 1.203.41 1.18.486 1.52.67.279.153.387.111.613.073.873-.141.555.256 1.443.211l.31.107c.359.122.053.069.437.061l.038-.004c.818-.03.884-.123.663-.883l.028-.004c.655.48 1.353 2.012 1.195 2.797-.207 1.053.046 1.875.95 2.53.57.425.471 1.44-.177 1.7-.757.306-1.561.474-2.346.704l-.222-.264c.196-.475.356-.969.59-1.431.428-.87.271-1.372-.651-1.643M122.17 127.55c-.753-.292-1.506-.384-2.259-.369-.876.031-1.737.184-2.598.338-.446.062-.876.169-1.307.184a1.893 1.893 0 01-1.06-.245.634.634 0 00-.246-.047.19.19 0 00-.092.016c-.277.046-.538.123-.815.2.108.215.2.461.354.645.492.646.507.83-.246 1.107-.846.307-1.46.876-2.137 1.399-.384.292-.415.63-.015.953.184.123.415.199.553.369.093.122.185.399.108.507a1.32 1.32 0 01-1.061.615c-.492 0-.999-.246-1.245-.769-.138-.261-.292-.538-.476-.891-.215.23-.385.399-.554.568-.353.354-.66.784-1.153.799-.153.016-.322-.03-.507-.107-.015-.015-.031-.015-.061-.015-.123 0-.384.153-.461.292-.216.338-.477.522-.83.522a1.378 1.378 0 01-.538-.076c.261.292.445.506.584.645-.123.292-.292.523-.308.784 0 .031 0 .046-.015.077.015.015.046.015.061.015.324.031.661.062.984.077.231.015.477.031.707.031.108 0 .216.015.323.015.262 0 .523-.015.799-.031.169-.015.354-.015.538-.03a15.69 15.69 0 001.676-.2c4.765-.846 8.715-3.597 11.297-7.378"/>
    <path d="M102.14 114.15c-.555.214-1.098.612-1.512 1.052-.257.265-.49.406-.746.41-.172.008-.352-.05-.555-.176-.18-.107-.337-.157-.475-.153-.252.004-.443.195-.593.524-.054.126-.161.237-.287.406-.406-.701-.728-1.366-1.149-1.956-.363-.513-.681-1.324-.532-1.926.008-.504.131-.823.406-1.217.728-.44 1.088-.152 1.497-.291.394-.141-.111-.498-.219-.865-.06-.222.127-.402.089-.627-.073-.452-.012-.942-.528-1.157-.119-.24-.046-.666-.486-1.507.474-.027.711.015.807-.242.138-.371-.142-.696-.245-1.224-.195-.356-.069-.716.008-.98.141-.513.669-.662.474-1.057-.107-.222-.608-.214-.791-.489-.227-.346-.139-.973-.215-1.218-.1-.321.211-.318.386-.643.165-.298.13-.386.299-1.34.202-.968-.663-.884.199-1.369.785-.434 1.826-.563 2.58-1.046.528-.348.961-1.152.742-1.886-.195-.659.904-1.762.83-.261l.441-.046c.294.497.509.849.639 1.098.272.532.165.472.084.769-.214.79-.08 1.119.682 1.326.811.224 1.087.485.987 1.304-.099.888.181 1.42.992 1.799.624.291.639.694.348 1.324-.172.391-.214.858-.364 1.482-.635.157-1.634.291-1.902 1.416-.019.084-.092.158-.157.223-.662.608-1.056 1.32-.865 2.262.031.156-.103.348-.122.524-.069.436-.203.884-.146 1.317.073.631.26 1.259.433 1.886.203.767-.215 2.237-1.034 2.554M96.152 124.49c.169-.215.185-.615.138-.922-.015-.077-.461-.123-.707-.154-.599-.077-1.214-.092-1.798-.261-.169-.046-.307-.507-.323-.784 0-.2.246-.415.369-.63.077-.139.077-.308.123-.446-.154.031-.307.046-.446.077-.215.077-.445.261-.661.261-.123 0-.23-.046-.338-.23-.231-.477-.307-1.015-.461-1.522-.092-.246-.154-.615-.338-.692-.523-.261-.676-.614-.476-1.122.168-.43.983-.538 1.091-.999.077-.261.261-.83.092-1.03-.431-.43-.846-.476-1.383-.445l-.047.184c.093.077.2.184.123.277-.215.246-.784.261-1.398.768-1.184.723-2.122 1.983-3.505 2.444-.292.092-.446-.107-.753-.2-.63.339-1.522 1.445-1.983 1.891-.815.814-1.829 1.076-2.905 1.537-.845.369-1.337.477-2.244.738-.399.107-1.599-.216-1.844.107-.723.892-.692 1.046-.969 1.922-1.429.184-1.86.784-2.521 1.23-1.045.691-1.429 1.26-1.26 1.628.615-.122.999-.568 1.429-.707.784-.276.876-.122 1.384.016-.307.292-.692.814-1.03 1.076-.477.4-1.23.722-1.491 1.06-.307.415-1.506 2.045-1.752 2.767a21.144 21.144 0 01-.169 2.137 5.131 5.131 0 01-.277 1.429 4.15 4.15 0 01-.307.722c-.308.308-.508.539-1 .631-.584-.092-.691-.815-1.245-2.383-.169.093-.353.277-.507.508-.2-.231-.538-2.198-.661-2.198-.107.015-.446.077-.492.445-.03.292-.215.815-.384 1.015-.061.092-.138.23-.353.184.184.108.353.431.537.723-.261-.062-.292-.047-.399-.047-.138.293-.261.6-.4.908-.015.061-.03.123-.061.184-.062.2-.169.4-.262.584-.015.015-.015.015-.015.031-.107.276-.123.446-.092.538.015.03.015.061.046.077.077.076.215.061.323.03.23-.092 2.244-.645 2.152-.23v.015c0 .031 0 .046-.016.092-.184.262-2.075.277-2.136.554.138.215.415.246.707.4.814.368.983.645 1.03.875-.047.139-.216.277-.415.446.215.108.43.2.661.292.184.062.353.123.537.185.277.092.539.184.815.276.184.047.369.092.569.154l.83.185c.184.045.369.076.569.107.292.062.599.092.891.139.185.015.354.046.523.061.368.03.738.046 1.107.046.107 0 .23.015.338.015h.046c.323 0 .645-.015.968-.046.169 0 .338 0 .523-.015a18.394 18.394 0 001.537-.2 32.04 32.04 0 001.153-.246 7.961 7.961 0 00-.154-.43c-.231-.553-.523-.892-1.137-.999-.662-.108-.923-.385-.677-.845.246-.508.354-1-.153-1.384-.354-.262-.662-.4-.969-.385-.292 0-.569.139-.861.385-.522.461-1.029.953-1.583 1.46-1.399-1.368-2.966-.738-4.596-1.153.231-.076.43-.138.676-.153.615.123 1.184.077 1.492.123.061 0 .138-.016.215-.016.092-.03.2-.03.292-.03.568-.016.999.215 1.414.553.2.138.354.215.507.2.169 0 .338-.108.523-.323.292-.354.615-.676.953-.953.261-.215.584-.307.907-.323.738-.015 1.506.446 1.629 1.168.061.431-.169.907-.277 1.43.4.184.677-.077 1.076.153.262.169.677.415.692.662.061.783-.046.538.169.83 4.104-1.077 7.532-3.582 9.868-6.917-.354 0-.722.138-1.106.23-.031 0-.062.016-.093.016-.169 0-.369-.077-.569-.108-.107-.015-.215-.046-.322-.046-.047 0-.078 0-.108.015-.876.323-1.768.646-2.72.999-.17-.522-.769-.415-1.323-.461-.276-.015-.584-.215-.768-.415-.354-.415-.599-.599-.876-.599-.231 0-.477.169-.83.476-.123.108-.231.262-.385.323-.169.046-.415.138-.553.138-.061 0-.107-.015-.123-.03-.338-.415-.645-.861-.814-1.353-.154-.461-.139-.984-.154-1.475-.031-.523.061-1.077.661-1.184.753-.123.999-.63 1.168-1.23.292-1.137.753-2.167 1.614-2.997.2-.2.369-.431.553-.661-.015-.077-.046-.154-.061-.231-.261.016-.507.047-.754.047h-.261c-.399-.047-.922-.031-1.168-.262-.43-.415-.323-1.014-.03-1.521.061.215.107.43.091.66-.046.769.231.984.861.969h.2c.139-.016.262-.062.4-.062h.076c.324.046.646.108.984.185-.138.246-.215.538-.384.722-.907.953-1.614 1.983-1.906 3.29-.123.599-.446 1.137-1.168 1.337-.231.061-.523.43-.538.692a5.691 5.691 0 00.092 1.767c.092.384.384.754.676 1.015.016.015.031.015.047.015.138 0 .538-.276.768-.446.415-.353.63-.522.845-.522.231-.016.446.184.923.599.261.246.661.599.953.584h.046c.184-.031.338-.061.476-.061.369 0 .631.092.769.384.984-.369 1.875-.707 2.782-1.03h.015c.047 0 .108.062.169.092.231.124.462.185.677.169.323 0 .63-.138.922-.353.154-.108.307-.169.431-.185.045 0 .092 0 .138.016 2.551-3.874 3.658-8.777 2.751-13.803.108.599.246 1.183.415 1.767.046.2.123.385.185.569.107.384.23.754.368 1.122.077.216.185.431.262.646.138.322.292.645.445.968.093.215.216.431.323.646.169.292.323.584.508.876.123.215.246.415.384.615.184.277.368.553.569.814.138.2.292.384.445.585.2.261.415.507.646.753l.046.046c.353-.83.861-1.537 1.629-2.044.108-.077.246-.323.216-.4-.078-.169-.262-.338-.431-.369-.031-.016-.062-.016-.092-.016-.169 0-.354.093-.523.093h-.046c-.215.015-.43-.031-.63-.046-.046-.093-.092-.2-.138-.292.522-.508 1.091-.984 1.552-1.553"/>
    <path d="M114.3 120.97c-.384-.661-.738-1.122-1.537-1.183-.108-.016-.307-.369-.276-.507.168-.631.415-1.246.614-1.86.062-.2.123-.446.062-.631-.154-.43-.384-.861-.615-1.352-.2.138-.323.277-.431.277h-.015c-.83-.047-1.814.138-2.428-.246-.539-.323-1.077-.539-1.615-.754-.015.016-.03.031-.046.062a.56.56 0 00-.169.2.479.479 0 00-.077.169c-.015.031-.015.031 0 .046 0 .03 0 .077-.015.138 0 .061-.031.139-.092.246a.903.903 0 00-.077.185c0 .03 0 .03.031.061.046.046.184.123.323.338a.597.597 0 00.122.169c.031.016.047.031.093.046.03.016.077.062.107.123.016.062.046.139.077.262s.062.184.077.215c.031.015.046.031.077.046s.092.031.123.092c.015.062.031.139.031.277 0 .107 0 .215.015.277 0 .046.016.061.016.092v.077l-.016.015-.015.031-.047.015h-.03l-.031-.015h-.015s0-.015-.016-.015c-.015-.031-.015-.047-.046-.062a2.086 2.086 0 00-.184-.277c-.093-.123-.154-.2-.2-.215-.046-.03-.046-.03-.062-.015a.347.347 0 00-.107.107c-.031.046-.077.123-.139.185-.046.061-.061.092-.061.123-.015.015 0 .03-.031.076 0 .016-.015.047-.046.062-.031.016-.046.016-.077.016a.496.496 0 01-.215 0c-.215-.016-.384 0-.538.045a.517.517 0 00-.307.354c-.077.2-.077.323-.092.431a.222.222 0 01-.062.153c-.031.046-.092.061-.169.077-.139.015-.307.015-.476.031-.169.015-.323.061-.385.123-.03.046-.03.046-.03.077 0 .015 0 .045.03.107.031.108.093.308.062.615-.016.154-.031.261-.077.323-.031.077-.123.107-.185.122-.107 0-.215-.015-.445.139-.123.077-.2.123-.292.138-.031 0-.077-.03-.108-.061s-.046-.046-.046-.077c-.046-.123-.031-.23-.185-.307-.092-.031-.138-.062-.169-.077-.015.015-.015.015-.03.061a1.812 1.812 0 01-.154.246c-.062.092-.108.139-.123.169 0 .016.015.016.031.031a.485.485 0 01.153.154.258.258 0 00.108.092.324.324 0 00.077.046.121.121 0 01.062.062c.015.03.015.061.015.076a.92.92 0 01-.077.216.421.421 0 01-.139.23.284.284 0 01-.107.031c-.031 0-.062-.016-.077-.016a.297.297 0 01-.138-.076c-.046-.031-.077-.047-.108-.047a2.921 2.921 0 01-.431-.153c-.184-.062-.383-.139-.583-.215-.046-.031-.093-.046-.124-.062a.156.156 0 01-.076-.092.167.167 0 01.015-.123l.061-.061c.093-.108.247-.277.354-.615.092-.308.154-.416.185-.508a.538.538 0 01-.461-.076.892.892 0 01-.308-.369c-.062-.154 0-.262 0-.339 0-.045-.015-.061-.031-.107-.031-.031-.061-.092-.154-.154-.076-.061-.138-.077-.169-.077a.143.143 0 00-.107.046c-.031.016-.061.031-.092.062-.016 0-.016.015-.016.015h-.092s-.03-.031-.046-.031c0 0 0-.015-.015-.015v-.046a1.046 1.046 0 00-.185-.277 2.252 2.252 0 00-.476-.43c-.231-.153-.323-.2-.339-.215-.015.015-.03.015-.076.015a.937.937 0 00-.262.092c-.107.047-.184.093-.184.093l-.015-.046c-.262.63-.584 1.229-.999 1.721-.892 1.091-1.845 2.183-3.198 2.813-.338.138-.553.492-.83.753.369.046.753.139 1.122.154.646.015.907.23.815.861-.031.292-.2.599-.384.83-.369.461-.8.876-1.276 1.383h.169c.062-.016.108-.016.169-.016.092 0 .169 0 .246-.015a3.42 3.42 0 01.4-.061c.369 0 .691.123.784.507.061.23-.431.584-.661.892-.446.599-.923 1.198-1.322 1.813.092.092.169.2.261.293.246.245.492.476.738.722.169.138.308.292.476.43.308.277.615.523.938.753.123.108.23.2.369.292.446.323.907.631 1.383.907.108.077.231.139.354.2.369.215.738.4 1.106.584.185.092.369.169.569.246.308.138.631.277.953.4.216.076.431.138.646.215.323.092.63.184.953.276.215.062.446.108.676.154.323.077.63.138.953.185.123.015.231.046.338.046.031-.062.031-.138.031-.215 0-.308.461-.646-.046-.923-.507-.584-.139-.691.63-.614h.016c.214 0 .461-.4.691-.569.123-.092.292-.2.431-.2.015 0 .03 0 .046.015.184.062.353.077.507.077.522-.015.861-.399 1.214-.876.154-.215.338-.323.523-.323.246 0 .476.169.63.492.292.692.553 1.015.953 1.015.307-.016.692-.216 1.23-.6-.277-.154-.538-.276-.738-.461-.554-.461-.538-.692 0-1.168.892-.83.892-.83.307-1.937-.138-.261-.292-.507-.43-.753-.308-.584-.4-1.199.015-1.722.83-1.076 1.645-2.151 2.583-3.135.783-.845.814-1.137.23-2.137M138.88 116.56c-.322-.188-2.584-.245-2.932-.383-.157-.069-.371-.081-.46-.195a8.626 8.626 0 01-.819-1.187c-.137-.241-.206-.536.245-.635.345-.073.693-.215.98-.406.804-.54.892-1.535.127-2.152-.724-.588-1.069-1.186-.739-2.162.13-.39-.05-.934-.222-1.359-.235-.568-.576-1.094-.868-1.605.203-.024.406-.052.61-.067.182-.012.37-.072.558-.14l.312-.036-.007-.073c.091-.031.182-.059.273-.08.874.438.639.426 1.235.83.221-1.179-.479-2.208 1.733-1.152 2.554.704 2.592 1.262 3.162.792.394-.303.341.019 1.382.173.513 1.565 1.283 2.656 1.891 3.088.215.781.173 1.249 0 3.261.2 1.634.28 2.637.091 3.766-.394-.036-1.022-.324-1.458-.317-.267.004-1.225.663-1.504.796-.329.157-.505.199-.827.062-.619-.26-1.056-.762-1.225-.877-.436-.291-1.082.322-1.538.058M120.99 99.681c.061-.111.104-.232.14-.359l.202-.528c.078-.13.187-.251.355-.353.399-.242 1.574-.341 1.574-.341s-1.026.639-1.739 1.251c-.354.304-.533.444-.614.537l.082-.207"/>
    <path d="M145.35 117.24c-.369-.123-.753-.185-1.076-.308-.338-.107-.492.047-.784.201-.323.153-.384.322-.983.614-.062.062-.123.093-.17.093h-.015c-.492.046-.861 0-1.26-.308-.108-.092-.262-.23-.415-.369-.016-.03-.047-.046-.062-.077-.061-.061-.123-.107-.199-.2-.324-.384-.815-.045-1.107.2-.969-.23-1.399-.384-1.922-.461-.63-.092-.661-.199-1.214-.184-.138.015-.753-.093-.83-.216-.415-.599-.784-1.229-1.184-1.875l-.261.015c-.031 0-.061.016-.092.016-.8.015-.922-.154-.661-.984.108-.353.323-.676.461-1.03.292-.66.092-1.029-.568-1.229-.6-.185-1.184-.415-1.799-.569-.676-.169-1.368-.43-2.06-.415a2.302 2.302 0 00-1.06.292c-.461.261-.938.354-1.429.369-.324 0-.662-.031-1-.061h-.046c-.23 0-.492.245-.753.368-.169.093-.385.292-.538.292-.031 0-.046 0-.061-.015-.984-.277-2.03-.338-2.906-1.045-.553-.446-1.306-.661-1.998-.907a11.337 11.337 0 00-1.706-.492 8.291 8.291 0 00-1.352-.23c-.462-.016-.784-.062-.8-.646-.03-.615-.707-1.26-1.291-1.245a.495.495 0 00-.261.062 1.67 1.67 0 01-.692.153c-.599.016-1.153-.276-1.752-.384-.169-.015-.384-.169-.462-.323-.476-1.122-1.337-1.629-2.474-1.952a6.5 6.5 0 00-2.013-.231 8.826 8.826 0 00-1.645.215c-.093.016-.169.185-.231.292-.261.431-.476.923-.799 1.292-.953 1.091-.707 2.428-.861 3.689-.046.476.246.984.369 1.491.6-.016 1.061.307.922.83-.246.907.277 1.137.892 1.46.2.092.384.185.538.169.169 0 .238.344.909.329-.031.186-.175.099-.387.117-.16.013-.245-.154-.445-.138a.98.98 0 01-.477-.139c-.199-.108-.384-.276-.599-.322-.707-.169-.892-.6-.707-1.276.123-.4-.062-.615-.523-.754.153 1.707-.554 2.813-2.121 3.444-.63.261-1.015.83-1.23 1.583a13.9 13.9 0 01-.369 1.06c.016-.015.031-.031.062-.031.107-.045.23-.107.338-.107h.046c.015 0 .061-.016.092 0 .077.031.139.077.354.231.23.153.415.307.538.445.092.123.138.216.169.308l.046-.046a.339.339 0 01.2-.062c.077 0 .169.031.261.108a.917.917 0 01.215.215.458.458 0 01.047.184c-.016.123-.047.185-.016.277a.733.733 0 00.246.292c.092.062.215.092.323.062.061-.031.092-.047.138-.062h.015l.047.015.03.031.015.046v.046c0 .016 0 .016-.015.031-.03.077-.107.231-.215.6-.107.368-.292.569-.384.676-.015.015-.015.015-.015.031.015.015.03.015.076.046.2.077.4.153.569.215.185.077.338.123.415.138.062.016.123.047.154.062a.83.83 0 01.107.077h.046a.417.417 0 00.077-.154.546.546 0 00.062-.154c-.016-.015-.047-.015-.077-.031a.679.679 0 01-.154-.153c-.03-.062-.061-.093-.092-.108-.031-.031-.061-.031-.108-.061-.015-.031-.031-.062-.031-.093 0-.045.016-.061.031-.092.016-.046.077-.107.139-.2.077-.092.122-.168.153-.215.016-.061.016-.092.062-.123.015-.031.061-.046.092-.046s.046 0 .077.015c.046.016.092.047.184.093.216.108.246.322.262.4l.015.015c.015 0 .062-.015.185-.108.261-.169.445-.154.522-.169.047 0 .031.015.047-.015a.942.942 0 00.061-.262c.03-.292-.031-.445-.061-.553-.016-.061-.032-.108-.032-.169 0-.061.032-.123.093-.184.107-.108.292-.154.476-.17.185-.015.369-.015.477-.031.046-.015.061-.015.061-.03 0 0 .015-.015.015-.046.016-.092.016-.246.093-.477a.754.754 0 01.415-.446c.184-.076.4-.076.615-.061.092.016.153.016.184.016v-.046a.474.474 0 01.108-.185c.046-.061.092-.123.138-.169.046-.061.077-.123.138-.169a.278.278 0 01.246.015c.077.062.154.139.246.277.031.046.046.061.061.092v-.138c0-.123-.015-.185-.015-.2-.015-.016-.015 0-.046-.016-.015-.015-.077-.045-.123-.092a.785.785 0 01-.123-.276c-.03-.123-.046-.2-.061-.246-.031-.031-.031-.031-.047-.031-.015-.015-.061-.031-.107-.077a.805.805 0 01-.169-.2c-.108-.184-.2-.23-.292-.307-.031-.046-.077-.107-.077-.185.016-.076.046-.153.092-.261.062-.108.077-.169.093-.2v-.077c-.016-.03-.016-.076 0-.123.015-.061.046-.122.092-.215.061-.092.138-.169.2-.23-.277-.092-.538-.2-.8-.293-.138-.045-.487-.145-.443-.439.493.215.843.255 1.15.394.062.015.108.045.17.061l.138.046c.015 0 .031.016.046.031 0 0 .015 0 .015.015.015 0 .015 0 .015.016.431.2.846.384 1.276.584.216.092.446.184.692.215.369.061.753.092 1.137.092h.462c.184 0 .369-.031.43-.123.707-.953 1.798-1.137 2.782-1.414.661-.185.784-.507.83-1.061.093-1.122.231-2.228.369-3.35-.021-.296-.004-.544.296-.694a52.248 52.248 0 01-.403 4.46c-.062.46-.415.737-.907.891-.861.246-1.691.615-2.506.922.262.569.431.969.646 1.353.307.507.292.892-.123 1.383-.384.461-.6 1.092-.354 1.799.108-.031.215-.046.323-.046.569-.016.891.399 1.153.891.153.277.292.569.477.815.445.568.322 1.045-.154 1.552-.861.968-1.691 1.967-2.521 2.967-.815.983-.83 1.368-.216 2.459.216.353.385.723.6 1.076.062.107.215.276.292.276.507-.169.999-.399 1.584-.645-.262-.261-.446-.384-.554-.553-.123-.216-.338-.569-.246-.692.138-.231.461-.369.738-.476a.866.866 0 01.2-.031c.138 0 .277.031.384.077.369.184.722.23 1.091.215.523 0 1.045-.154 1.568-.215.815-.108 1.614-.262 2.428-.277.677-.015 1.369.046 2.06.292.108.046.2.077.308.092 2.582-3.889 3.704-8.823 2.797-13.879.108.599.246 1.198.4 1.767.061.2.123.384.184.569.123.384.246.753.385 1.122.076.215.169.43.261.646.138.322.277.645.43.968.108.215.215.43.339.645.153.292.322.584.491.876.138.216.261.415.4.616.184.276.369.553.568.814.139.2.277.384.431.584.215.261.43.507.646.753.153.169.307.354.461.523.246.246.507.492.753.722.154.154.307.292.461.431.308.276.63.522.953.768.123.093.231.185.354.277.445.323.906.63 1.383.922l.369.185c.354.215.722.415 1.091.584.184.092.385.169.569.246.322.138.645.276.968.399.215.077.431.139.646.215.307.093.63.2.937.277.231.062.461.108.692.154.307.077.63.138.953.184.23.047.461.077.707.108.323.031.646.061.984.077.23.015.461.031.707.031.092.015.2.015.308.015.276 0 .537-.015.799-.031.184 0 .369-.015.537-.015.093-.016.2-.016.292-.031-.384-.246-.153-.738-.23-1.214-.077-.415-.277-1.276-.215-1.691.138-.922-.446-1.168-.307-1.86-.385-.415-.416-1.061-.569-1.445-.139-.307-.554-.738-.969-.876-.184-.061-.384-.876-.445-1.106-.308-.477.015-.385.353-.324l.016.016c.046-.031.076-.046.107-.031.077.046.154.077.231.108 1.736.03 1.798-.83 2.521-2.137.123-.369.199-.707.276-1.045M99.539 117.23c-.54.942-.839 1.957-1.776 2.737-.697.582-1.264 1.337-2.098 1.788-.455.245-.88.559-1.313.834-.16.108-.314.207-.475.307-.022-.241-.087-.49-.048-.728.022-.161.232-.279.278-.448.055-.229.027-.49.035-.731-.038.004-.077.004-.119.004-.387.092-.716.112-1.11.295-.207.004-.271-.199-.432-.739a3.298 3.298 0 01-.112-.777c-.022-.379-.034-.697-.49-.876-.202-.081-.378-.51-.371-.77.02-.336.785-.364.942-.677.567-1.087.678-1.635-.452-2.14.743-1.099 1.582-1.42 2.431-2.266.418-.321.46-.765.727-1.014.624-.536.62-.383.681-.012.291.972-.129 1.095.532 2.064.564.795 1.026 1.657 1.528 2.499.016-.004.03-.004.042-.004.05 0 .096 0 .142-.003h.045c.1-.211.173-.445.307-.625.126-.168.325-.383.49-.386h.004c.745-.004 1.121.627.811 1.313a9.83 9.83 0 01-.199.355"/>
    <path d="M92.597 161.43a71.122 71.122 0 01-6.706-2.883c-2.197-1.044-4.298-2.269-6.338-3.593l-1.52-1.015-1.466-1.095-.742-.539-.705-.589c-.47-.391-.949-.778-1.436-1.161.407.464.816.923 1.233 1.378l.632.682.677.635 1.378 1.248c.483.387.977.762 1.467 1.141.248.187.49.382.742.566l.773.513c.521.337 1.03.696 1.562 1.014 1.076.624 2.151 1.244 3.269 1.781 2.235 1.082 4.543 2.009 6.917 2.709 2.373.7 4.803 1.232 7.264 1.432a82.224 82.224 0 01-7.001-2.224m68.366-47.646c1.467 27.122-16.218 51.515-42.209 56.882l.911 4.931a.454.454 0 01-.363.532l-1.436.264a.452.452 0 01-.528-.363l-.911-4.935a51.57 51.57 0 01-8.109.655c-23.323 0-44.447-15.931-51.755-39.318.192.463.403.914.628 1.355.073.144.154.281.23.422.159.293.319.584.491.867.1.162.206.319.309.478.165.252.331.501.506.743a20.721 20.721 0 001.288 1.594c.198.219.401.431.608.64.132.133.263.268.398.397.227.215.463.42.7.624.125.107.246.219.374.323.31.252.63.492.955.722.062.044.12.093.182.136.389.269.789.521 1.197.759.122.071.25.133.374.202.29.16.581.317.879.46.161.078.326.147.49.22.269.119.538.236.813.342.178.069.358.132.538.195a17.553 17.553 0 001.373.419c.278.073.558.136.841.194.186.038.371.078.558.111.299.051.601.09.903.126.174.02.346.046.521.062.363.031.73.045 1.098.054.115.003.229.013.345.014l.046.001c.322 0 .646-.024.97-.042.171-.01.341-.008.513-.023a17.028 17.028 0 001.539-.203c9.699-1.734 16.068-11.353 14.243-21.485.108.603.247 1.191.407 1.769.054.193.122.377.181.567.118.381.238.759.377 1.127.082.217.177.426.266.639.138.328.279.654.433.971.106.218.22.429.334.642a18.55 18.55 0 002.54 3.646c.155.174.307.35.468.518.24.251.491.488.743.725.157.145.309.297.469.438.303.264.619.511.937.754.123.094.24.197.366.288a18.4 18.4 0 001.382.911c.12.071.246.13.367.198.361.204.725.403 1.098.581.186.088.377.163.565.245.319.139.638.275.964.395.213.078.429.144.644.214.313.101.626.198.945.281.226.059.455.111.684.161a17.132 17.132 0 001.66.281c.326.039.654.065.984.085.235.014.469.028.705.033.105.002.209.014.315.014.267 0 .535-.023.803-.035.179-.009.358-.01.538-.024a17.337 17.337 0 001.681-.209c9.701-1.734 16.07-11.353 14.244-21.485.108.603.247 1.191.407 1.769.054.192.121.377.18.566.119.381.239.76.378 1.128.082.217.177.426.266.638.138.328.278.655.434.973.106.217.22.428.333.641.16.299.325.594.499.882a19.459 19.459 0 001.396 2.004c.209.261.426.513.648.762.153.173.305.348.464.515.242.253.495.492.749.73.155.144.305.294.464.433.304.266.621.514.942.758.121.093.237.195.361.285.448.325.909.629 1.383.912.118.069.242.127.361.194.363.205.728.405 1.104.584.184.088.375.162.563.244.32.139.64.276.967.397.211.077.425.143.639.211.315.102.63.2.95.284.225.059.452.109.68.159a17.283 17.283 0 001.66.282c.328.039.657.065.988.085.234.015.467.029.702.033.107.002.211.015.318.015.266 0 .535-.023.803-.035.179-.009.357-.01.536-.024a17.376 17.376 0 001.681-.209c8.353-1.494 14.228-8.823 14.534-17.301"/>
  </g>
</svg>
